<svg width="32" height="32" viewBox="0 0 32 32" fill="none" xmlns="http://www.w3.org/2000/svg">
<g clip-path="url(#clip0_1_111)">
<path d="M0.197876 19.6246C0.164456 19.5484 0.131035 19.4722 0.0800589 19.4168C0.0625034 18.7695 0.0625034 18.1015 0.0844761 17.4C0.209803 17.3185 0.318249 17.2791 0.41576 17.2214C2.39827 16.0464 4.38151 14.8727 6.35997 13.6909C7.04531 13.2815 7.71817 12.8513 8.41537 12.4369C8.6634 12.6502 8.8928 12.8571 9.13319 13.0817C9.36605 13.3168 9.58791 13.5342 9.81766 13.7672C9.84219 13.8133 9.85884 13.8438 9.87395 13.8972C9.73965 14.0547 9.62813 14.225 9.47095 14.3188C6.9521 15.823 4.43147 17.3243 1.90085 18.8085C1.35895 19.1263 0.857614 19.5459 0.197876 19.6246Z" fill="#F87274"/>
<path d="M8.39673 12.4306C7.71817 12.8513 7.04531 13.2815 6.35996 13.6909C4.38151 14.8727 2.39827 16.0464 0.415756 17.2214C0.318245 17.2792 0.209799 17.3185 0.0844724 17.3707C0.0624998 16.8945 0.0624998 16.4141 0.0625 15.9043C0.103913 15.8367 0.17307 15.804 0.182152 15.7591C0.23383 15.5039 0.27117 15.2457 0.340774 14.9613C0.742929 14.7358 1.12576 14.5513 1.49101 14.3368C2.80749 13.5636 4.12099 12.7854 5.42939 11.9987C5.96143 11.6788 6.47752 11.3324 7.01888 11.0081C7.16869 11.1379 7.30049 11.2577 7.443 11.3955C7.71695 11.6725 7.9802 11.9316 8.25373 12.2082C8.30824 12.294 8.35249 12.3623 8.39673 12.4306Z" fill="#FB797E"/>
<path d="M32.0625 19.4082C32.0008 19.6081 31.9273 19.7754 31.8797 19.9498C31.7315 20.493 31.5931 21.039 31.4211 21.6139C31.3148 21.6163 31.1833 21.6045 31.1701 21.5587C30.9587 20.8243 30.6099 20.0894 30.591 19.347C30.5334 17.0838 30.6042 14.8174 30.6253 12.5522C30.6258 12.5003 30.6105 12.4352 30.6356 12.3994C30.6774 12.3397 30.7459 12.2987 30.8032 12.2499C31.4227 13.3428 31.801 14.5136 31.9425 15.7618C31.9475 15.8058 31.9874 15.8459 32.0368 15.8814C32.0625 17.043 32.0625 18.2109 32.0625 19.4082Z" fill="#C61A27"/>
<path d="M7.00087 10.998C6.47752 11.3324 5.96142 11.6788 5.42938 11.9987C4.12098 12.7854 2.80748 13.5637 1.49101 14.3368C1.12575 14.5513 0.742922 14.7359 0.345505 14.9357C0.673854 13.2072 1.42766 11.6612 2.54862 10.3115C3.32078 9.38189 4.23962 8.59966 5.29045 7.98119C6.32739 7.37091 7.42306 6.91758 8.602 6.67112C8.71095 6.64834 8.823 6.64034 8.95301 6.64502C8.64229 7.00378 8.31216 7.343 7.96548 7.69364C7.74286 7.97031 7.53679 8.23556 7.3161 8.51686C7.20236 8.68888 7.10325 8.84485 6.9885 9.01478C6.89508 9.1632 6.8173 9.29766 6.72337 9.44559C6.65243 9.57421 6.59764 9.68937 6.52885 9.81859C6.47244 9.93011 6.43004 10.0276 6.38065 10.1478C6.43359 10.2827 6.49352 10.3949 6.56517 10.5243C6.71581 10.6748 6.85473 10.808 6.99524 10.9555C6.99684 10.9697 7.00087 10.998 7.00087 10.998Z" fill="#FD8086"/>
<path d="M28.0715 8.87184C28.1 8.89237 28.1286 8.91289 28.1837 8.95024C28.2248 8.97924 28.2407 8.98945 28.2578 8.99767C28.2578 8.99767 28.2517 8.99824 28.2613 9.00825C28.2877 9.03191 28.3046 9.04556 28.3214 9.05921C28.3972 9.15008 28.4729 9.24095 28.5475 9.37262C28.5333 9.48414 28.5014 9.55726 28.5101 9.62519C28.5782 10.1581 28.679 10.6881 28.7216 11.2228C28.7789 11.942 28.848 12.6673 28.8147 13.3854C28.7427 14.9368 28.5988 16.4847 28.5053 18.0353C28.4722 18.5841 28.5001 19.1367 28.4995 19.7142C28.3935 20.5296 28.3179 21.324 28.1733 22.1056C28.0611 22.712 27.9454 23.343 27.6791 23.8887C27.4135 24.433 26.9731 24.8971 26.58 25.3721C26.3852 25.6074 26.1399 25.8098 25.8896 25.988C25.572 26.2142 25.2462 26.4519 24.8878 26.593C24.2348 26.8499 23.5467 27.0164 22.8887 27.2622C21.7997 27.669 20.6763 27.6025 19.5593 27.5192C18.7754 27.4607 17.9974 27.31 17.22 27.1809C16.3816 27.0418 15.5452 26.889 14.7113 26.725C14.062 26.5972 13.4213 26.4244 12.7706 26.3055C11.9958 26.1638 11.2154 26.0509 10.435 25.9435C10.2749 25.9215 10.1039 25.9792 9.92846 25.9783C9.90389 25.846 9.88888 25.7355 9.90109 25.625C10.1647 25.6574 10.4029 25.68 10.6372 25.724C11.2079 25.8312 11.7736 25.9694 12.3472 26.0559C13.0133 26.1565 13.6875 26.2029 14.3549 26.2956C15.042 26.391 15.7231 26.531 16.4109 26.6195C16.966 26.6909 17.5293 26.6973 18.0853 26.7635C19.0965 26.8839 20.1045 27.0253 21.1257 26.8762C21.7933 26.7788 22.4865 26.7732 23.1252 26.5825C23.9645 26.332 24.8593 26.2114 25.6114 25.7041C25.9303 25.4889 26.3067 25.3324 26.5662 25.0621C26.9285 24.6847 27.2062 24.226 27.5187 23.801C27.5364 23.7769 27.5468 23.7444 27.5517 23.7144C27.6174 23.3153 27.7309 22.9166 27.7371 22.5164C27.7604 21.013 27.7483 19.509 27.7506 18.0053C27.7508 17.8806 27.7476 17.754 27.767 17.6316C27.9461 16.5041 28.1299 15.3773 28.3141 14.2252C28.8141 12.3598 28.3503 10.6124 27.8114 8.86482C27.809 8.86677 27.8172 8.85436 27.8247 8.85478C27.907 8.85931 27.9892 8.86585 28.0715 8.87184Z" fill="#D8262C"/>
<path d="M28.0618 8.85252C27.9892 8.86584 27.907 8.8593 27.8247 8.85477C27.8172 8.85435 27.809 8.86676 27.8114 8.86481C28.3503 10.6124 28.8141 12.3597 28.2934 14.2321C28.172 14.4846 28.0791 14.708 27.973 14.9249C27.7058 15.4713 27.4086 16.0046 27.1722 16.5638C27.0614 16.8259 26.9346 16.8949 26.6859 16.7886C26.6648 16.6556 26.6451 16.5464 26.6489 16.4355C26.7455 16.3478 26.8578 16.2726 26.885 16.174C27.0142 15.7046 27.135 15.2318 27.2311 14.7547C27.3786 14.022 27.6443 13.2973 27.4856 12.5329C27.2248 11.2762 27.1016 9.96912 26.1636 8.95787C25.6917 8.44921 25.1506 8.08624 24.431 7.98723C24.1354 7.67168 23.8664 7.35975 23.5764 7.06869C23.4268 6.91858 23.24 6.80557 23.071 6.66395C23.0719 6.6521 23.0776 6.62903 23.0776 6.62903C23.6768 6.77183 24.2887 6.87561 24.8725 7.06566C26.0429 7.44668 27.0959 8.05759 28.0618 8.85252Z" fill="#D92932"/>
<path d="M7.98204 7.68222C8.31217 7.343 8.64229 7.00378 8.97922 6.64577C9.02512 6.58278 9.06423 6.53859 9.1491 6.49051C9.29803 6.48519 9.40533 6.50197 9.50376 6.47965C11.4939 6.02836 13.4833 5.57406 15.4713 5.11333C15.5712 5.09017 15.6564 5.00354 15.7747 4.94422C15.8886 4.93947 15.9763 4.93696 16.092 4.93605C16.2697 4.93152 16.4194 4.92539 16.5941 4.91951C16.9757 4.84107 17.3324 4.76238 17.6891 4.68369C18.5184 4.48757 19.3384 4.48624 20.1564 4.83147C20.0784 4.90602 19.9918 4.96765 19.8961 4.98989C19.0598 5.18412 18.2187 5.35884 17.386 5.56726C17.089 5.64161 16.8388 5.60458 16.588 5.45049C16.4431 5.36142 16.2912 5.28358 16.063 5.15641C16.063 5.40985 16.063 5.58009 16.0629 5.77373C16.0627 5.84392 16.0625 5.89072 16.0361 5.93763C15.9377 5.94434 15.8636 5.94277 15.7935 5.95874C13.6576 6.445 11.5229 6.93624 9.38607 7.41815C8.92182 7.52285 8.45024 7.59505 7.98204 7.68222Z" fill="#AEDF5D"/>
<path d="M28.5001 19.6876C28.5 19.1367 28.4722 18.5841 28.5053 18.0353C28.5988 16.4847 28.7427 14.9368 28.8147 13.3854C28.848 12.6673 28.7789 11.942 28.7216 11.2228C28.679 10.6881 28.5782 10.1581 28.5101 9.62519C28.5014 9.55726 28.5333 9.48414 28.5561 9.39099C29.0514 9.72351 29.4846 10.1297 29.7858 10.6548C29.6966 10.7162 29.5788 10.7599 29.574 10.8137C29.5548 11.0296 29.5759 11.2487 29.5725 11.4664C29.5574 12.4273 29.5604 13.3892 29.5149 14.3488C29.4801 15.0813 29.3445 15.8097 29.3214 16.5421C29.2871 17.6313 29.3125 18.7223 29.298 19.8311C29.2524 19.9558 29.2166 20.0608 29.191 20.1682C29.1449 20.3614 29.105 20.556 29.0468 20.7335C28.9774 20.5017 28.9166 20.2879 28.8719 20.0708C28.8283 19.8591 28.7859 19.6587 28.5001 19.6876Z" fill="#D3232C"/>
<path d="M30.8066 12.2271C30.7459 12.2987 30.6774 12.3397 30.6356 12.3994C30.6105 12.4352 30.6258 12.5003 30.6253 12.5522C30.6042 14.8174 30.5334 17.0838 30.591 19.347C30.6099 20.0894 30.9587 20.8243 31.1701 21.5587C31.1833 21.6045 31.3148 21.6163 31.4103 21.6353C31.2601 22.0776 31.0908 22.5284 30.8813 22.9842C30.7806 22.908 30.692 22.8353 30.6648 22.7442C30.558 22.387 30.4675 22.0248 30.3768 21.663C30.2834 21.2904 30.1875 20.9181 30.1095 20.5423C30.0216 20.1182 29.8833 19.6897 29.8865 19.264C29.9038 16.9884 29.9591 14.7131 29.9992 12.4377C30.0051 12.1048 29.9895 11.7711 30.0062 11.439C30.0115 11.3316 30.0881 11.2278 30.1321 11.1224C30.3581 11.483 30.5841 11.8436 30.8066 12.2271Z" fill="#CC1E28"/>
<path d="M30.1227 11.1034C30.0881 11.2278 30.0115 11.3316 30.0062 11.439C29.9895 11.7711 30.0051 12.1048 29.9992 12.4377C29.9591 14.7131 29.9037 16.9884 29.8865 19.264C29.8833 19.6897 30.0216 20.1182 30.1095 20.5423C30.1875 20.9181 30.2834 21.2904 30.3768 21.663C30.4675 22.0248 30.558 22.387 30.6648 22.7442C30.692 22.8353 30.7806 22.908 30.8624 22.9962C30.7175 23.3223 30.5511 23.6415 30.3534 23.9817C30.2455 24.0064 30.1689 24.01 30.108 24.013C30.0483 23.6062 30.0084 23.2279 29.9352 22.8562C29.7351 21.8401 29.521 20.8269 29.3125 19.8125C29.3125 18.7223 29.2871 17.6313 29.3214 16.5421C29.3445 15.8097 29.4801 15.0814 29.5149 14.3488C29.5604 13.3892 29.5574 12.4273 29.5725 11.4664C29.5759 11.2487 29.5548 11.0296 29.574 10.8137C29.5788 10.7599 29.6966 10.7162 29.7824 10.6768C29.906 10.8186 30.0097 10.9515 30.1227 11.1034Z" fill="#D01F29"/>
<path d="M15.7484 4.94647C15.6564 5.00355 15.5712 5.09018 15.4713 5.11334C13.4833 5.57407 11.4939 6.02836 9.50376 6.47966C9.40533 6.50198 9.29803 6.4852 9.16434 6.48125C9.84618 5.89641 10.6272 5.42832 11.4484 5.01971C12.3898 4.55128 13.3617 4.41421 14.4255 4.69776C14.5625 4.74234 14.6578 4.77564 14.7763 4.81379C14.9094 4.83465 15.0192 4.85064 15.1515 4.87824C15.3655 4.90871 15.557 4.92759 15.7484 4.94647Z" fill="#B4E564"/>
<path d="M14.3853 3.24925C14.3606 2.80737 14.3224 2.36575 14.3142 1.92357C14.2964 0.964845 14.8529 0.307234 15.8444 0.373204C16.1506 0.393579 16.4574 0.40636 16.7834 0.456507C16.6184 0.910702 16.4339 1.33101 16.2294 1.75732C16.0352 1.96777 15.889 2.20896 15.6805 2.36886C15.267 2.68604 14.819 2.95838 14.3853 3.24925Z" fill="#B4E564"/>
<path d="M21.3154 5.36792C21.6638 5.58433 22.0122 5.80074 22.353 6.05307C21.5429 6.35534 20.7373 6.56971 19.8839 6.31874C19.7187 6.27016 19.5379 6.2744 19.3643 6.25427C19.3547 6.28227 19.345 6.31027 19.3354 6.33827C19.4109 6.43384 19.4864 6.52941 19.5626 6.64063C19.5638 6.66671 19.5644 6.67714 19.5413 6.69211C18.9784 6.83378 18.4485 7.03424 17.8633 6.91964C17.5367 6.71544 17.2992 6.38523 16.8703 6.40082C16.8128 6.40291 16.7487 6.22168 16.7111 6.12988C17.1738 6.3422 17.612 6.28075 18.0637 6.16173C18.6132 6.01693 19.1746 5.91797 19.7273 5.78415C20.2591 5.65538 20.7862 5.50744 21.3154 5.36792Z" fill="#A4D552"/>
<path d="M21.3049 5.34845C20.7862 5.50745 20.2591 5.65539 19.7273 5.78416C19.1746 5.91798 18.6132 6.01694 18.0637 6.16174C17.612 6.28076 17.1738 6.34221 16.6901 6.12525C16.4514 5.99416 16.2572 5.87225 16.063 5.75033C16.063 5.58009 16.063 5.40984 16.063 5.1564C16.2912 5.28358 16.4431 5.36142 16.588 5.45048C16.8388 5.60458 17.089 5.64161 17.386 5.56726C18.2187 5.35883 19.0598 5.18412 19.8961 4.98988C19.9918 4.96765 20.0784 4.90601 20.1782 4.84274C20.5562 4.99155 20.9253 5.16026 21.3049 5.34845Z" fill="#A9DA58"/>
<path d="M15.7747 4.94423C15.557 4.92759 15.3655 4.90872 15.1552 4.85743C15.1734 4.75143 15.1986 4.66796 15.2496 4.60572C16.0912 3.57903 16.7388 2.43625 17.2922 1.23456C17.3386 1.1338 17.4751 1.07452 17.5697 0.995972C17.6093 1.06552 17.649 1.13508 17.6709 1.2307C17.5237 1.47377 17.367 1.67925 17.2695 1.90976C16.8623 2.87261 16.4725 3.84282 16.0782 4.81113C16.0632 4.84805 16.0683 4.89316 16.064 4.93445C15.9763 4.93697 15.8886 4.93948 15.7747 4.94423Z" fill="#7DB84C"/>
<path d="M16.092 4.93603C16.0683 4.89314 16.0632 4.84803 16.0782 4.81111C16.4725 3.8428 16.8623 2.87258 17.2695 1.90974C17.367 1.67922 17.5237 1.47375 17.675 1.25143C17.73 1.67539 17.7633 2.10467 17.7729 2.53092C17.6314 2.42501 17.6259 2.4225 17.5547 2.57807C17.2394 3.26671 16.9253 3.95596 16.6172 4.64784C16.5809 4.72928 16.5842 4.82835 16.5692 4.91925C16.4194 4.92538 16.2697 4.93151 16.092 4.93603Z" fill="#69AD4D"/>
<path d="M19.5619 6.625C19.4864 6.52943 19.4109 6.43386 19.3354 6.33829C19.345 6.31029 19.3547 6.28229 19.3643 6.25429C19.5379 6.27442 19.7187 6.27018 19.8839 6.31876C20.7373 6.56973 21.5429 6.35536 22.3619 6.07248C22.6068 6.23227 22.8354 6.4086 23.0708 6.60699C23.0776 6.62905 23.0719 6.65213 23.0547 6.68103C22.546 6.80693 22.0544 6.90392 21.537 7.0002C21.0391 6.88899 20.5685 6.7717 20.0942 6.67156C19.9212 6.63504 19.7396 6.63933 19.5619 6.625Z" fill="#9CCE4C"/>
<path d="M17.5663 0.975157C17.4751 1.07449 17.3387 1.13377 17.2922 1.23453C16.7388 2.43622 16.0913 3.579 15.2496 4.60569C15.1986 4.66793 15.1734 4.7514 15.1326 4.8458C15.0192 4.85062 14.9094 4.83462 14.7771 4.79166C14.9948 4.4451 15.251 4.13608 15.4701 3.8026C15.6492 3.52996 15.7838 3.22814 15.956 2.92797C16.0518 2.82037 16.1476 2.73353 16.2046 2.6261C16.4622 2.13989 16.701 1.64354 16.9639 1.16024C17.0577 0.987618 17.2003 0.841482 17.3207 0.683258C17.4014 0.773629 17.4821 0.863999 17.5663 0.975157Z" fill="#8DC351"/>
<path d="M16.5941 4.91951C16.5842 4.82837 16.5809 4.7293 16.6172 4.64786C16.9253 3.95597 17.2394 3.26672 17.5547 2.57808C17.6259 2.42251 17.6314 2.42503 17.7516 2.54745C17.7311 3.25354 17.7084 3.9401 17.6874 4.65518C17.3324 4.76238 16.9757 4.84107 16.5941 4.91951Z" fill="#479C4B"/>
<path d="M14.3805 3.27747C14.819 2.95837 15.267 2.68603 15.6805 2.36885C15.889 2.20895 16.0352 1.96776 16.2254 1.77933C16.0775 2.17626 15.9138 2.55718 15.7323 2.94906C15.3533 3.38971 14.978 3.80211 14.4312 4.00354C14.4127 3.77092 14.3942 3.53831 14.3805 3.27747Z" fill="#A9DA58"/>
<path d="M15.7501 2.93814C15.9138 2.55721 16.0775 2.17628 16.2453 1.77334C16.4339 1.33103 16.6184 0.91072 16.8072 0.468903C16.9739 0.513202 17.1362 0.579013 17.3096 0.664053C17.2003 0.841506 17.0577 0.987642 16.9639 1.16026C16.701 1.64357 16.4622 2.13991 16.2046 2.62612C16.1476 2.73356 16.0518 2.82039 15.9325 2.9276C15.8441 2.93837 15.7971 2.93825 15.7501 2.93814Z" fill="#9ED156"/>
<path d="M15.7323 2.94908C15.7971 2.93824 15.8441 2.93836 15.9146 2.93887C15.7838 3.22815 15.6491 3.52997 15.4701 3.80261C15.251 4.13609 14.9947 4.44511 14.7538 4.78681C14.6577 4.77562 14.5625 4.74232 14.4511 4.69504C14.435 4.47399 14.4352 4.26694 14.4333 4.03172C14.978 3.80212 15.3533 3.38972 15.7323 2.94908Z" fill="#9CCE4C"/>
<path d="M28.3147 9.04353C28.3046 9.04558 28.2877 9.03193 28.261 9.00518C28.2701 9.00399 28.289 9.01591 28.3147 9.04353Z" fill="#D92932"/>
<path d="M28.2517 8.9829C28.2407 8.98944 28.2248 8.97924 28.2002 8.95715C28.2086 8.95421 28.2271 8.96117 28.2517 8.9829Z" fill="#D92932"/>
<path d="M0.193283 19.6501C0.857603 19.5459 1.35893 19.1263 1.90084 18.8085C4.43146 17.3243 6.95209 15.823 9.47093 14.3189C9.62811 14.225 9.73964 14.0547 9.8917 13.9079C10.1904 14.16 10.4698 14.4241 10.7601 14.7059C10.9724 14.9407 11.1738 15.1578 11.3656 15.3938C11.2403 15.5131 11.1365 15.6337 11.0069 15.7111C9.34751 16.7017 7.68777 17.6919 6.02034 18.6689C5.47572 18.988 4.93262 19.3341 4.34542 19.5497C3.70672 19.7841 3.01928 19.8889 2.34987 20.0356C1.69127 20.1799 1.02864 20.3059 0.367779 20.4399C0.308086 20.1851 0.248393 19.9303 0.193283 19.6501Z" fill="#F56A6A"/>
<path d="M11.3752 15.375C11.1738 15.1578 10.9724 14.9407 10.7895 14.7057C11.7053 14.7086 12.6027 14.7294 13.5213 14.764C13.645 14.7895 13.7493 14.7921 13.8493 14.8141C14.5065 14.9584 15.1665 15.0927 15.8167 15.2636C15.9906 15.3093 16.134 15.4712 16.2914 15.5798C16.1409 15.7254 16.0113 15.9059 15.8364 16.0109C14.5092 16.8082 13.174 17.5923 11.8392 18.3771C11.1948 18.756 10.5846 19.2405 9.89074 19.4779C8.60652 19.9173 7.27708 20.2302 5.95641 20.5548C5.36497 20.7002 4.74661 20.7323 4.14515 20.8415C3.33803 20.9882 2.53476 21.1565 1.73122 21.3222C1.37929 21.3947 1.03077 21.4839 0.680695 21.5655C0.621241 21.4134 0.561788 21.2612 0.530182 21.0804C0.710997 21.0225 0.864493 20.9959 1.01685 20.9639C2.6039 20.6302 4.19629 20.3193 5.77519 19.9507C6.48856 19.7841 7.22555 19.5962 7.8633 19.2533C9.273 18.4953 10.6267 17.6332 12.0031 16.8134C12.1864 16.7042 12.3691 16.594 12.6211 16.4429C12.1706 16.0568 11.7729 15.7159 11.3752 15.375Z" fill="#F15F5C"/>
<path d="M22.9376 30.366C22.0061 30.803 21.0315 31.1217 20.0228 31.3032C19.0864 31.4718 18.1362 31.5639 17.1921 31.6892C16.1702 31.8248 15.1488 31.7775 14.1369 31.6209C13.1187 31.4634 12.0996 31.2904 11.0984 31.0512C10.4586 30.8984 9.85052 30.613 9.21484 30.354C9.32925 30.2765 9.45652 30.1953 9.58492 30.1935C10.4077 30.1818 11.2307 30.1911 12.0535 30.1832C12.1688 30.182 12.3586 30.1537 12.3851 30.0868C12.4812 29.8446 12.6652 29.8664 12.8493 29.8766C13.9066 29.9353 14.9629 30.0161 16.0208 30.0568C17.5374 30.1151 19.055 30.151 20.5724 30.1849C21.2596 30.2002 21.9475 30.1803 22.6347 30.1956C22.7369 30.1978 22.8367 30.3065 22.9376 30.366Z" fill="#C61A27"/>
<path d="M29.298 19.8311C29.521 20.8269 29.7351 21.8401 29.9352 22.8562C30.0084 23.2279 30.0483 23.6062 30.108 24.0129C30.1689 24.01 30.2455 24.0064 30.3433 24.0014C29.9265 24.6399 29.5259 25.3101 29.0395 25.9108C28.569 26.4919 28.0241 27.016 27.4849 27.5372C27.1327 27.8778 26.7326 28.1687 26.3346 28.4635C26.374 28.2284 26.2992 28.1492 26.0803 28.2145C25.9708 28.2472 25.862 28.2884 25.7498 28.305C24.0424 28.5576 22.33 28.6424 20.6014 28.5768C18.9834 28.5153 17.3669 28.4812 15.7611 28.2503C14.8684 28.1219 13.9675 28.0425 13.0805 27.8844C12.4209 27.7669 11.7785 27.5544 11.1263 27.3928C10.9493 27.349 10.7375 27.213 10.6099 27.4848C10.5008 27.2506 10.4066 27.0315 10.3354 26.8028C10.5015 26.7871 10.6482 26.7585 10.7872 26.7798C11.1044 26.8283 11.4174 26.9032 11.7327 26.9641C12.8818 27.1863 14.0256 27.4429 15.1818 27.6183C16.3083 27.7891 17.4466 27.8852 18.5815 27.9961C19.0873 28.0455 19.5973 28.0572 20.1057 28.0742C20.7667 28.0962 21.428 28.1134 22.0892 28.1184C22.3371 28.1202 22.5859 28.0866 22.8333 28.0605C23.2552 28.0161 23.6763 27.9635 24.098 27.9169C24.7194 27.8483 25.2941 27.6473 25.8703 27.4004C26.6824 27.0525 27.5526 26.8939 28.2329 26.2136C28.7556 25.6908 29.1072 25.102 29.222 24.4336C29.4325 23.2082 29.3165 21.9696 29.0625 20.75C29.105 20.556 29.145 20.3613 29.191 20.1682C29.2166 20.0608 29.2524 19.9558 29.298 19.8311Z" fill="#D4202A"/>
<path d="M11.3656 15.3938C11.7729 15.7159 12.1706 16.0568 12.6211 16.4429C12.3691 16.594 12.1864 16.7041 12.0031 16.8133C10.6267 17.6331 9.273 18.4953 7.8633 19.2533C7.22555 19.5961 6.48856 19.7841 5.77519 19.9507C4.19629 20.3193 2.6039 20.6302 1.01685 20.9638C0.864494 20.9959 0.710997 21.0225 0.53424 21.057C0.464837 20.8718 0.419224 20.6812 0.370697 20.4653C1.02864 20.3059 1.69127 20.1799 2.34988 20.0356C3.01928 19.8889 3.70673 19.7841 4.34543 19.5496C4.93262 19.3341 5.47572 18.988 6.02035 18.6689C7.68777 17.6918 9.34752 16.7017 11.0069 15.711C11.1365 15.6337 11.2403 15.5131 11.3656 15.3938Z" fill="#F36361"/>
<path d="M10.6249 27.5001C10.7375 27.213 10.9493 27.349 11.1263 27.3928C11.7785 27.5544 12.4209 27.7669 13.0805 27.8845C13.9675 28.0426 14.8684 28.1219 15.7611 28.2503C17.3669 28.4812 18.9834 28.5154 20.6014 28.5768C22.33 28.6424 24.0424 28.5576 25.7498 28.305C25.862 28.2884 25.9708 28.2472 26.0803 28.2145C26.2992 28.1492 26.374 28.2285 26.3141 28.4669C25.9516 28.7367 25.5905 28.9847 25.2062 29.2128C25.1275 28.9318 24.9207 29.0038 24.7557 29.0091C24.5179 29.0166 24.2808 29.0467 24.0431 29.0621C23.5568 29.0936 23.0706 29.134 22.5838 29.1482C21.8988 29.1681 21.2123 29.194 20.5282 29.1689C19.7633 29.1408 19.0002 29.0615 18.2367 28.9991C17.6274 28.9493 17.0187 28.8929 16.41 28.8365C15.6669 28.7676 14.922 28.7127 14.1818 28.6206C13.3088 28.512 12.4402 28.3686 11.5691 28.2441C11.4619 28.2288 11.3513 28.237 11.2422 28.2342C11.2528 28.3513 11.2569 28.4694 11.2771 28.5848C11.2854 28.6324 11.3386 28.6709 11.3531 28.719C11.3955 28.86 11.4287 29.0037 11.4655 29.1463C11.3316 29.1809 11.1978 29.2445 11.0636 29.2454C9.92979 29.2535 8.79586 29.2489 7.66196 29.2515C7.51431 29.2518 7.32938 29.2042 7.31016 29.4457C6.92109 29.2087 6.53202 28.9716 6.1387 28.6925C6.23726 28.6003 6.33667 28.5164 6.44342 28.5057C7.15359 28.4344 7.86526 28.378 8.57659 28.3184C9.11287 28.2735 9.64871 28.2079 10.1859 28.193C10.968 28.1713 10.9684 28.1872 10.6249 27.5001Z" fill="#D01F29"/>
<path d="M1.07306 22.6245C1.04896 22.5767 1.02487 22.5289 1.00716 22.4393C1.21854 22.3118 1.41637 22.196 1.62969 22.1449C3.28445 21.748 4.94364 21.3697 6.59822 20.9721C7.15172 20.8391 7.69754 20.6726 8.24259 20.5073C8.33919 20.478 8.41471 20.3792 8.52441 20.3076C9.28377 20.1182 10.0226 19.9478 10.7519 19.7433C11.1093 19.643 11.4731 19.5211 11.7925 19.3371C13.106 18.58 14.4036 17.7952 15.7072 17.0208C16.3769 16.623 17.0476 16.2271 17.7163 15.8277C18.1125 15.591 18.1543 15.3191 17.8512 15.0063C17.772 14.9246 17.7002 14.8356 17.6204 14.7272C17.5355 14.4488 17.4552 14.1932 17.397 13.9419C17.6127 14.0266 17.8064 14.1071 18.0046 14.2085C18.2178 14.4585 18.4412 14.6764 18.629 14.9215C18.7203 15.0407 18.8026 15.217 18.7877 15.3568C18.7573 15.643 18.6931 15.9373 18.5769 16.199C18.4867 16.4018 18.3291 16.6112 18.1448 16.7293C17.4455 17.1774 16.7356 17.6123 16.0066 18.0098C14.8635 18.6332 13.8453 19.501 12.5313 19.7945C12.1364 19.8827 11.7466 19.9947 11.3561 20.1018C9.96718 20.4828 8.57873 20.8657 7.19088 21.2507C7.08245 21.2808 6.98014 21.3329 6.85088 21.3764C6.44624 21.4709 6.06833 21.577 5.6846 21.654C4.93395 21.8048 4.17737 21.9265 3.42824 22.084C2.64014 22.2497 1.85787 22.4432 1.07306 22.6245Z" fill="#EF5852"/>
<path d="M17.625 14.75C17.7002 14.8356 17.772 14.9246 17.8512 15.0063C18.1543 15.3191 18.1125 15.591 17.7163 15.8277C17.0476 16.2271 16.3769 16.623 15.7072 17.0208C14.4036 17.7952 13.106 18.58 11.7925 19.3371C11.4731 19.5211 11.1093 19.643 10.7519 19.7433C10.0226 19.9478 9.28377 20.1182 8.5003 20.3124C5.8878 20.8396 3.32386 21.357 0.759913 21.8745C0.735428 21.7869 0.710944 21.6993 0.683578 21.5886C1.03077 21.4839 1.37929 21.3947 1.73123 21.3222C2.53477 21.1565 3.33803 20.9881 4.14515 20.8415C4.74661 20.7322 5.36497 20.7001 5.95642 20.5548C7.27709 20.2302 8.60652 19.9173 9.89074 19.4779C10.5846 19.2405 11.1948 18.756 11.8392 18.3771C13.174 17.5923 14.5092 16.8082 15.8364 16.0109C16.0113 15.9059 16.1409 15.7253 16.2914 15.5798C16.134 15.4712 15.9906 15.3093 15.8167 15.2636C15.1665 15.0927 14.5065 14.9584 13.8494 14.8141C13.7493 14.7921 13.645 14.7894 13.5418 14.7503C13.8386 14.6901 14.136 14.6345 14.4341 14.6295C15.2237 14.6163 16.0139 14.6145 16.8033 14.6307C17.0779 14.6364 17.3511 14.7083 17.625 14.75Z" fill="#F05C57"/>
<path d="M7.32156 29.4639C7.32939 29.2041 7.51432 29.2518 7.66197 29.2514C8.79587 29.2489 9.9298 29.2534 11.0636 29.2454C11.1978 29.2445 11.3316 29.1809 11.4655 29.1463C11.4287 29.0037 11.3955 28.86 11.3531 28.719C11.3386 28.6709 11.2854 28.6324 11.2771 28.5848C11.257 28.4694 11.2528 28.3513 11.2422 28.2342C11.3513 28.2369 11.4619 28.2288 11.5691 28.2441C12.4402 28.3686 13.3088 28.5119 14.1818 28.6206C14.922 28.7127 15.6669 28.7676 16.41 28.8365C17.0187 28.8929 17.6274 28.9492 18.2367 28.9991C19.0002 29.0615 19.7633 29.1408 20.5282 29.1688C21.2123 29.1939 21.8988 29.1681 22.5838 29.1481C23.0706 29.1339 23.5568 29.0936 24.0431 29.0621C24.2808 29.0467 24.5179 29.0166 24.7557 29.009C24.9207 29.0038 25.1275 28.9317 25.1853 29.2166C24.8269 29.446 24.4663 29.6518 24.077 29.8388C23.9205 29.7759 23.7923 29.6926 23.6648 29.6938C22.7403 29.7027 21.8156 29.7535 20.8916 29.7395C20.3671 29.7316 19.8455 29.604 19.32 29.5692C17.871 29.4731 16.4199 29.4095 14.9712 29.3096C13.9993 29.2426 13.0302 29.1341 12.0594 29.0486C11.974 29.041 11.8449 29.0362 11.8097 29.0842C11.7709 29.1369 11.7986 29.2595 11.8298 29.3389C11.9797 29.7203 11.9659 29.7489 11.5669 29.7495C10.5679 29.7509 9.5687 29.7437 8.56982 29.7579C8.4416 29.7597 8.3149 29.8681 8.1875 29.9271C7.90265 29.7788 7.6178 29.6305 7.32156 29.4639Z" fill="#CC1E28"/>
<path d="M8.20763 29.9376C8.3149 29.8681 8.4416 29.7597 8.56982 29.7579C9.56869 29.7437 10.5679 29.7509 11.5669 29.7495C11.9659 29.749 11.9797 29.7203 11.8298 29.339C11.7986 29.2595 11.7709 29.1369 11.8097 29.0842C11.8449 29.0362 11.974 29.0411 12.0594 29.0486C13.0302 29.1341 13.9992 29.2426 14.9712 29.3096C16.4199 29.4096 17.871 29.4732 19.32 29.5692C19.8455 29.6041 20.3671 29.7316 20.8916 29.7396C21.8155 29.7535 22.7403 29.7027 23.6648 29.6938C23.7923 29.6926 23.9205 29.7759 24.0555 29.8424C23.7029 30.0341 23.3433 30.2035 22.9607 30.3694C22.8367 30.3065 22.7369 30.1979 22.6347 30.1956C21.9475 30.1803 21.2596 30.2003 20.5724 30.1849C19.055 30.1511 17.5374 30.1151 16.0208 30.0568C14.9629 30.0161 13.9066 29.9353 12.8493 29.8766C12.6652 29.8664 12.4812 29.8446 12.3852 30.0868C12.3586 30.1537 12.1689 30.1821 12.0535 30.1832C11.2307 30.1912 10.4077 30.1818 9.58493 30.1935C9.45652 30.1953 9.32926 30.2765 9.19448 30.3434C8.86759 30.2265 8.54767 30.0873 8.20763 29.9376Z" fill="#C91B27"/>
<path d="M10.6099 27.4848C10.9684 28.1872 10.968 28.1713 10.1859 28.193C9.64871 28.2079 9.11287 28.2735 8.57659 28.3184C7.86526 28.378 7.15359 28.4344 6.44342 28.5057C6.33666 28.5164 6.23726 28.6003 6.12803 28.6739C5.54426 28.23 4.96691 27.7626 4.39484 27.2567C4.49486 27.1868 4.58765 27.1374 4.68471 27.1267C5.15795 27.0744 5.6332 27.04 6.10613 26.9854C7.11349 26.8691 8.12058 26.7497 9.12622 26.6196C9.44118 26.5788 9.75115 26.4996 10.0779 26.4524C10.1657 26.5821 10.2391 26.6973 10.3125 26.8125C10.4066 27.0315 10.5007 27.2506 10.6099 27.4848Z" fill="#D8262C"/>
<path d="M10.0634 26.4379C9.75115 26.4996 9.44118 26.5788 9.12622 26.6196C8.12058 26.7498 7.11349 26.8691 6.10613 26.9854C5.6332 27.04 5.15795 27.0745 4.68471 27.1267C4.58765 27.1374 4.49486 27.1868 4.3861 27.238C4.03826 26.9283 3.70442 26.599 3.36952 26.2247C3.47277 26.0996 3.56848 25.9673 3.68284 25.9485C4.21507 25.8611 4.7543 25.8172 5.28765 25.7356C6.71374 25.5174 8.1381 25.2878 9.5768 25.0797C9.68492 25.2728 9.77939 25.4489 9.87386 25.625C9.88887 25.7355 9.90388 25.846 9.9327 26.0006C9.98547 26.1758 10.0244 26.3069 10.0634 26.4379Z" fill="#DD2F35"/>
<path d="M2.13475 24.6244C2.02699 24.4531 1.91923 24.2817 1.82884 24.0761C1.921 24.0081 1.99265 23.9585 2.07105 23.9429C2.82283 23.7934 3.57644 23.653 4.3282 23.5034C5.75012 23.2203 7.17086 22.9313 8.59286 22.6485C8.85353 22.5967 8.97034 22.4842 8.89857 22.1948C8.83013 21.9189 8.93974 21.8064 9.22639 21.8168C9.42222 21.8239 9.6172 21.8547 9.83353 21.8887C10.6703 22.0233 11.487 22.1232 12.3389 21.9994C13.0494 21.9437 13.7334 21.8881 14.4178 21.8355C14.444 21.8335 14.4725 21.8611 14.4824 21.8889C13.7867 22.1001 13.1177 22.4123 12.4282 22.467C11.44 22.5454 10.436 22.4519 9.44055 22.3989C9.04021 22.3776 8.9302 22.4769 9.0629 22.8989C9.08363 23.032 9.10394 23.1409 9.10112 23.2547C8.91896 23.3049 8.76217 23.3618 8.60045 23.3937C8.14251 23.484 7.68303 23.5668 7.22327 23.6475C6.18314 23.83 5.14048 23.9989 4.10276 24.1941C3.44312 24.3182 2.79051 24.4797 2.13475 24.6244Z" fill="#E84343"/>
<path d="M9.56315 25.0628C8.1381 25.2878 6.71374 25.5174 5.28765 25.7356C4.7543 25.8172 4.21507 25.8611 3.68284 25.9485C3.56848 25.9673 3.47277 26.0996 3.36192 26.2065C3.11667 25.9415 2.87796 25.6495 2.64262 25.3189C2.82223 25.2082 2.99258 25.1012 3.17573 25.0704C3.95098 24.9401 4.73187 24.8435 5.50723 24.7139C6.52759 24.5432 7.54593 24.3595 8.56226 24.1663C8.7974 24.1216 9.02088 24.0155 9.26544 23.9377C9.29163 23.9376 9.3021 23.9375 9.31283 23.9598C9.33368 24.0505 9.35429 24.119 9.37534 24.2121C9.41737 24.4079 9.45894 24.579 9.50464 24.7726C9.5269 24.8843 9.54502 24.9735 9.56315 25.0628Z" fill="#E3383B"/>
<path d="M9.81256 21.8749C9.6172 21.8547 9.42222 21.8239 9.22638 21.8168C8.93973 21.8064 8.83013 21.9189 8.89856 22.1948C8.97034 22.4842 8.85353 22.5967 8.59285 22.6485C7.17086 22.9313 5.75012 23.2203 4.3282 23.5034C3.57644 23.653 2.82283 23.7934 2.07105 23.9429C1.99265 23.9585 1.921 24.0081 1.82599 24.0538C1.6832 23.8527 1.56065 23.6398 1.44902 23.3852C1.54814 23.2945 1.63103 23.2199 1.72535 23.2003C2.77423 22.9827 3.82487 22.7737 4.89342 22.5749C4.94197 22.5936 4.97385 22.6094 5.00207 22.6044C6.15731 22.4007 7.31404 22.2044 8.46469 21.9773C8.59644 21.9513 8.75579 21.769 8.79364 21.6296C8.85788 21.3931 8.98114 21.358 9.18047 21.3897C9.95437 21.5128 10.728 21.5633 11.4923 21.3954C11.1586 21.5271 10.8361 21.6509 10.5052 21.7456C10.2804 21.8099 10.0439 21.8333 9.81256 21.8749Z" fill="#EA4848"/>
<path d="M4.87506 22.5623C3.82489 22.7737 2.77424 22.9827 1.72536 23.2003C1.63104 23.2199 1.54815 23.2945 1.44724 23.3627C1.31598 23.1444 1.19743 22.9071 1.07597 22.6471C1.85788 22.4432 2.64014 22.2497 3.42824 22.084C4.17738 21.9265 4.93396 21.8048 5.68461 21.654C6.06834 21.577 6.44624 21.4709 6.86964 21.3891C7.55153 21.3368 8.21554 21.3859 8.77749 20.9765C8.82251 20.9437 8.89769 20.9356 8.95656 20.941C9.82763 21.0208 10.6605 20.798 11.4917 20.6457C11.1747 20.7748 10.8723 20.9135 10.5547 20.9843C10.1327 21.0784 9.70026 21.1525 9.26959 21.1706C9.02208 21.181 8.82718 21.1573 8.72234 21.4404C8.69113 21.5247 8.55515 21.5975 8.45364 21.6242C7.55036 21.8625 6.64361 22.0875 5.7389 22.3204C5.44938 22.395 5.16292 22.4814 4.87506 22.5623Z" fill="#ED4F53"/>
<path d="M9.24973 23.9377C9.02089 24.0155 8.7974 24.1215 8.56226 24.1662C7.54593 24.3595 6.52759 24.5432 5.50723 24.7138C4.73188 24.8435 3.95098 24.9401 3.17574 25.0704C2.99258 25.1012 2.82224 25.2082 2.63413 25.2995C2.46112 25.1017 2.29998 24.8845 2.1368 24.6458C2.79052 24.4797 3.44313 24.3182 4.10277 24.1941C5.14048 23.9988 6.18315 23.83 7.22328 23.6474C7.68304 23.5668 8.14251 23.484 8.60045 23.3937C8.76218 23.3618 8.91896 23.3049 9.10306 23.2797C9.14789 23.4499 9.16766 23.5999 9.19556 23.7681C9.21904 23.8367 9.23439 23.8872 9.24973 23.9377Z" fill="#E73E44"/>
<path d="M0.762405 21.8969C3.32386 21.357 5.8878 20.8395 8.47586 20.3173C8.41471 20.3792 8.33919 20.478 8.24259 20.5073C7.69754 20.6726 7.15172 20.8391 6.59822 20.9721C4.94364 21.3697 3.28445 21.748 1.62969 22.1449C1.41637 22.196 1.21854 22.3118 1.00639 22.4186C0.921125 22.2661 0.843009 22.0927 0.762405 21.8969Z" fill="#EF5658"/>
<path d="M8.41536 12.4369C8.35248 12.3623 8.30824 12.294 8.28073 12.2068C8.40994 12.1687 8.52193 12.1459 8.63496 12.131C10.7208 11.8548 12.8071 11.583 14.892 11.2997C15.1232 11.2683 15.3457 11.1732 15.5884 11.1214C15.7548 11.2524 15.9052 11.3696 16.0775 11.4897C16.1896 11.4495 16.2797 11.4063 16.3793 11.383C16.7041 11.6785 16.9962 11.9884 17.3399 12.2224C17.9538 12.6404 18.608 12.9992 19.2256 13.4121C19.4129 13.5374 19.5353 13.7597 19.6613 13.9375C19.3817 13.9167 19.1283 13.8958 18.8536 13.8704C18.7602 13.8251 18.6872 13.7857 18.6159 13.7437C18.0451 13.4072 17.4892 13.0413 16.898 12.7457C16.6023 12.5978 16.243 12.5154 15.9117 12.5133C15.2702 12.5094 14.6279 12.5785 13.9866 12.6265C13.4179 12.669 12.8499 12.7223 12.2818 12.7739C11.2285 12.8694 10.1754 12.9672 9.1222 13.0641C8.89279 12.8571 8.66339 12.6502 8.41536 12.4369Z" fill="#EA4A4F"/>
<path d="M9.13319 13.0817C10.1754 12.9672 11.2285 12.8694 12.2819 12.7739C12.8499 12.7223 13.4179 12.669 13.9867 12.6265C14.6279 12.5785 15.2703 12.5094 15.9117 12.5133C16.243 12.5154 16.6023 12.5978 16.898 12.7457C17.4892 13.0413 18.0451 13.4072 18.6159 13.7437C18.6873 13.7857 18.7602 13.8251 18.8583 13.8916C18.9436 14.0491 19.003 14.1809 19.035 14.3126C18.6717 14.2709 18.3359 14.2293 18.0001 14.1876C17.8064 14.1071 17.6127 14.0267 17.385 13.9242C17.0642 13.6817 16.7564 13.5465 16.378 13.5587C14.1888 13.6296 11.9992 13.6886 9.80977 13.7517C9.58791 13.5343 9.36605 13.3168 9.13319 13.0817Z" fill="#ED4F53"/>
<path d="M9.81766 13.7672C11.9992 13.6886 14.1888 13.6295 16.378 13.5587C16.7564 13.5464 17.0642 13.6817 17.363 13.9199C17.4552 14.1932 17.5355 14.4488 17.6204 14.7272C17.3511 14.7083 17.0779 14.6364 16.8033 14.6307C16.0139 14.6145 15.2237 14.6163 14.4341 14.6295C14.136 14.6345 13.8386 14.6901 13.5205 14.7364C12.6027 14.7294 11.7053 14.7086 10.7787 14.688C10.4699 14.4241 10.1904 14.16 9.89324 13.8852C9.85883 13.8438 9.84219 13.8133 9.81766 13.7672Z" fill="#EF5658"/>
<path d="M15.5723 11.1076C15.3458 11.1732 15.1232 11.2683 14.892 11.2997C12.8071 11.5829 10.7208 11.8548 8.63496 12.1309C8.52194 12.1459 8.40994 12.1687 8.27046 12.1892C7.9802 11.9316 7.71695 11.6725 7.46773 11.3902C7.56257 11.3486 7.64265 11.3256 7.72431 11.3125C9.54392 11.0203 11.3626 10.7223 13.184 10.4416C13.8682 10.3362 14.5587 10.2717 15.2571 10.2092C15.3694 10.5225 15.4709 10.815 15.5723 11.1076Z" fill="#E73E44"/>
<path d="M15.2463 10.1885C14.5587 10.2717 13.8682 10.3362 13.184 10.4416C11.3626 10.7223 9.54393 11.0203 7.72432 11.3125C7.64265 11.3256 7.56258 11.3486 7.45703 11.3723C7.3005 11.2577 7.16869 11.1379 7.01889 11.0081C7.00088 10.998 6.99685 10.9697 7.01733 10.9453C7.42334 10.843 7.80793 10.7599 8.19461 10.688C9.00993 10.5364 9.82634 10.3906 10.654 10.2438C10.6656 10.2451 10.6888 10.2487 10.6977 10.2696C10.9817 10.5051 11.1366 10.4989 11.3845 10.2673C11.4828 10.1755 11.5852 10.088 11.7087 10.0029C12.0679 9.97437 12.4057 9.9522 12.7403 9.9065C13.5363 9.79776 14.3309 9.67789 15.1315 9.5871C15.1734 9.80396 15.2099 9.99624 15.2463 10.1885Z" fill="#DD3741"/>
<path d="M7.96549 7.69363C8.45024 7.59505 8.92182 7.52285 9.38607 7.41815C11.5229 6.93624 13.6576 6.445 15.7935 5.95874C15.8636 5.94278 15.9377 5.94435 16.0362 5.96626C16.0622 6.20466 16.0619 6.41455 16.036 6.62508C15.2592 6.7917 14.5126 6.98443 13.7552 7.11533C13.1361 7.22235 12.5384 7.57995 11.876 7.32003C11.8264 7.30058 11.7531 7.33017 11.6941 7.34778C10.7975 7.61528 9.90599 7.90135 9.00353 8.14723C8.45457 8.2968 7.88889 8.38503 7.33072 8.50081C7.53679 8.23555 7.74287 7.9703 7.96549 7.69363Z" fill="#A9DA58"/>
<path d="M7.3161 8.51685C7.88888 8.38502 8.45456 8.2968 9.00352 8.14723C9.90598 7.90134 10.7975 7.61528 11.6941 7.34778C11.7531 7.33017 11.8264 7.30058 11.876 7.32003C12.5384 7.57995 13.1361 7.22235 13.7552 7.11533C14.5126 6.98442 15.2592 6.7917 16.0367 6.6416C16.0635 6.66851 16.0639 6.67952 16.0642 6.71926C16.0632 7.01931 16.0623 7.29065 16.0352 7.56226C15.6933 7.62508 15.3778 7.68761 15.0621 7.72686C15.0618 7.65702 15.0614 7.61047 15.06 7.54095C15.0292 7.30151 14.9055 7.31098 14.7432 7.37686C14.1178 7.63069 13.495 7.89163 12.8624 8.12628C12.3197 8.32761 11.7649 8.4967 11.2241 8.65941C11.301 8.51066 11.3694 8.38254 11.4527 8.24008C11.5213 8.12999 11.575 8.03424 11.6456 7.92656C11.7257 7.81817 11.7889 7.7217 11.8906 7.56652C11.7319 7.58027 11.6484 7.57217 11.5754 7.59614C10.5409 7.93573 9.51094 8.28977 8.47286 8.61807C7.99112 8.77042 7.49418 8.87473 7.00414 9.00082C7.10325 8.84484 7.20236 8.68887 7.3161 8.51685Z" fill="#A4D552"/>
<path d="M10.6423 10.2425C9.82633 10.3907 9.00992 10.5364 8.1946 10.688C7.80792 10.7599 7.42333 10.843 7.01572 10.9311C6.85473 10.808 6.71581 10.6748 6.58864 10.5211C6.79529 10.3958 6.9902 10.2909 7.20716 10.1955C7.54462 10.1689 7.86167 10.1434 8.17511 10.0947C9.01388 9.96432 9.85109 9.82399 10.6887 9.70828C10.6858 9.75636 10.6831 9.78378 10.6648 9.83014C10.647 9.98023 10.6446 10.1114 10.6423 10.2425Z" fill="#D8313B"/>
<path d="M6.9885 9.01478C7.49419 8.87473 7.99112 8.77042 8.47287 8.61807C9.51094 8.28978 10.5409 7.93573 11.5754 7.59614C11.6484 7.57218 11.7319 7.58027 11.8906 7.56653C11.7889 7.72171 11.7257 7.81817 11.6285 7.91563C11.4082 7.97117 11.2201 8.02015 11.0359 8.08118C10.0607 8.40436 9.08882 8.73805 8.11075 9.05241C7.6596 9.19741 7.19695 9.30666 6.73952 9.43213C6.8173 9.29766 6.89509 9.1632 6.9885 9.01478Z" fill="#9ED156"/>
<path d="M6.72338 9.44558C7.19696 9.30666 7.65961 9.1974 8.11076 9.0524C9.08883 8.73805 10.0607 8.40436 11.0359 8.08117C11.2201 8.02015 11.4082 7.97116 11.6116 7.92755C11.575 8.03424 11.5213 8.12999 11.4287 8.24224C10.5323 8.56989 9.67467 8.88105 8.79966 9.1789C8.62592 9.19941 8.4667 9.22352 8.31374 9.26877C7.72237 9.44369 7.13299 9.62536 6.54286 9.80452C6.59765 9.68936 6.65245 9.5742 6.72338 9.44558Z" fill="#8DC351"/>
<path d="M6.52886 9.81857C7.13298 9.62534 7.72236 9.44367 8.31374 9.26875C8.4667 9.2235 8.62592 9.1994 8.78944 9.19629C8.71897 9.27747 8.64131 9.32794 8.54199 9.38187C8.22437 9.52954 7.92841 9.67376 7.61577 9.80604C7.49102 9.8166 7.38112 9.8327 7.2752 9.8628C6.97847 9.9471 6.68338 10.0372 6.38765 10.125C6.43005 10.0275 6.47245 9.93009 6.52886 9.81857Z" fill="#7DB84C"/>
<path d="M6.38066 10.1478C6.68338 10.0372 6.97847 9.94711 7.2752 9.8628C7.38112 9.83271 7.49101 9.81661 7.60843 9.82601C7.47355 9.9673 7.32933 10.0767 7.18511 10.1861C6.99021 10.2909 6.7953 10.3958 6.57692 10.5038C6.49353 10.3949 6.4336 10.2827 6.38066 10.1478Z" fill="#69AD4D"/>
<path d="M9.57681 25.0797C9.54503 24.9735 9.5269 24.8843 9.53282 24.7725C9.73267 24.7623 9.90969 24.7654 10.0841 24.7884C11.0812 24.9197 12.076 25.0698 13.075 25.1843C13.5792 25.2421 14.0961 25.1988 14.5975 25.2697C15.9224 25.4571 17.2457 25.6617 18.5624 25.8994C19.3318 26.0383 20.0683 25.9686 20.8033 25.7433C21.2596 25.6034 21.7108 25.4415 22.1743 25.332C23.0717 25.1198 23.7233 24.5633 24.182 23.8163C24.6257 23.0936 24.9068 22.294 24.9849 21.4252C25.0563 20.6308 25.1871 19.8441 24.9456 19.0576C24.928 19.0003 24.9401 18.9335 24.94 18.8711C24.9386 18.045 24.939 17.2189 24.9337 16.3928C24.9333 16.3242 24.8953 16.2559 24.8748 16.1582C24.8749 15.9728 24.8676 15.8162 24.8761 15.6605C24.9418 14.4548 24.6808 13.328 24.0787 12.2792C23.8365 11.8572 23.6092 11.4267 23.3962 11.0047C23.5311 11.138 23.6689 11.2526 23.7544 11.398C24.0581 11.9142 24.3841 12.423 24.6265 12.968C24.9221 13.633 25.1448 14.3308 25.3933 15.0164C25.5188 15.3627 25.6315 15.7137 25.7501 16.0917C25.7715 16.7224 25.7814 17.3246 25.8184 17.9251C25.843 18.3256 25.9032 18.7241 25.9528 19.1229C26.0326 19.7649 26.1179 20.4062 26.1981 21.0481C26.2183 21.2098 26.2279 21.3728 26.2423 21.5352C26.3273 21.4965 26.358 21.4568 26.3708 21.4119C26.6201 20.5394 26.758 19.6497 26.7474 18.7417C26.7399 18.0985 26.7083 17.4555 26.6874 16.8124C26.9346 16.8949 27.0614 16.8259 27.1722 16.5638C27.4086 16.0046 27.7058 15.4713 27.973 14.925C28.0791 14.708 28.172 14.4846 28.2916 14.2572C28.1299 15.3773 27.9461 16.5041 27.767 17.6316C27.7476 17.754 27.7508 17.8806 27.7506 18.0053C27.7483 19.509 27.7604 21.013 27.7371 22.5164C27.7309 22.9166 27.6174 23.3153 27.5517 23.7144C27.5468 23.7444 27.5364 23.7769 27.5187 23.801C27.2062 24.226 26.9285 24.6847 26.5662 25.0621C26.3067 25.3324 25.9303 25.4889 25.6114 25.7041C24.8593 26.2114 23.9645 26.332 23.1252 26.5825C22.4865 26.7732 21.7933 26.7788 21.1257 26.8762C20.1045 27.0253 19.0965 26.8839 18.0853 26.7635C17.5293 26.6973 16.966 26.6909 16.4109 26.6195C15.7231 26.531 15.042 26.391 14.3549 26.2956C13.6875 26.2029 13.0133 26.1565 12.3472 26.0559C11.7736 25.9694 11.2079 25.8312 10.6372 25.724C10.4029 25.68 10.1647 25.6574 9.90109 25.625C9.7794 25.4489 9.68493 25.2728 9.57681 25.0797Z" fill="#DD282E"/>
<path d="M10.0779 26.4524C10.0244 26.3069 9.98548 26.1758 9.94226 26.0225C10.1039 25.9792 10.2749 25.9215 10.4349 25.9435C11.2154 26.0509 11.9958 26.1638 12.7706 26.3055C13.4213 26.4244 14.062 26.5972 14.7113 26.725C15.5452 26.889 16.3816 27.0418 17.22 27.181C17.9974 27.31 18.7754 27.4607 19.5593 27.5192C20.6763 27.6025 21.7997 27.669 22.8887 27.2622C23.5467 27.0164 24.2348 26.8499 24.8878 26.593C25.2462 26.4519 25.572 26.2142 25.8896 25.988C26.1399 25.8098 26.3852 25.6074 26.58 25.3721C26.9731 24.8971 27.4135 24.433 27.6791 23.8887C27.9454 23.343 28.061 22.712 28.1733 22.1056C28.3179 21.324 28.3935 20.5296 28.4995 19.7142C28.7859 19.6587 28.8283 19.8591 28.8719 20.0707C28.9166 20.2879 28.9774 20.5017 29.0468 20.7335C29.3165 21.9696 29.4325 23.2082 29.222 24.4336C29.1072 25.102 28.7556 25.6909 28.2329 26.2137C27.5526 26.8939 26.6824 27.0526 25.8703 27.4005C25.2941 27.6473 24.7194 27.8483 24.098 27.917C23.6763 27.9635 23.2552 28.0161 22.8333 28.0605C22.5859 28.0866 22.3371 28.1202 22.0892 28.1184C21.428 28.1134 20.7667 28.0963 20.1057 28.0742C19.5973 28.0572 19.0873 28.0455 18.5815 27.9961C17.4466 27.8852 16.3083 27.7891 15.1818 27.6183C14.0256 27.4429 12.8818 27.1863 11.7327 26.9642C11.4174 26.9032 11.1044 26.8283 10.7872 26.7798C10.6482 26.7585 10.5015 26.7871 10.3354 26.8028C10.2391 26.6973 10.1657 26.5821 10.0779 26.4524Z" fill="#D6222B"/>
<path d="M24.4489 7.99951C25.1506 8.08625 25.6917 8.44922 26.1636 8.95787C27.1016 9.96913 27.2248 11.2763 27.4856 12.5329C27.6443 13.2973 27.3786 14.022 27.2311 14.7547C27.135 15.2318 27.0142 15.7046 26.885 16.174C26.8578 16.2726 26.7455 16.3478 26.6484 16.4102C26.6037 16.2369 26.5831 16.0872 26.5607 15.912C26.4351 15.2994 26.3113 14.7122 26.207 14.1151C26.2967 14.0083 26.4105 13.9186 26.4278 13.8132C26.4605 13.6138 26.4646 13.4011 26.4333 13.2013C26.3103 12.4149 26.2615 11.6112 25.9127 10.8736C25.8382 10.7159 25.802 10.5401 25.7506 10.3473C25.651 10.0687 25.549 9.81541 25.4424 9.54011C25.258 9.23045 25.0781 8.94275 24.8897 8.63642C24.7564 8.4531 24.6315 8.28844 24.5017 8.10717C24.4808 8.06022 24.4649 8.02987 24.4489 7.99951Z" fill="#DD2F35"/>
<path d="M26.5625 15.9375C26.5831 16.0872 26.6037 16.2369 26.6248 16.412C26.6451 16.5465 26.6648 16.6556 26.6859 16.7886C26.7083 17.4555 26.7399 18.0985 26.7474 18.7417C26.758 19.6497 26.6201 20.5394 26.3708 21.4119C26.358 21.4568 26.3273 21.4965 26.2423 21.5353C26.2279 21.3728 26.2183 21.2098 26.1981 21.0481C26.1179 20.4062 26.0326 19.7649 25.9528 19.1229C25.9032 18.7241 25.843 18.3257 25.8184 17.9252C25.7814 17.3246 25.7715 16.7224 25.7709 16.0963C25.9108 16.161 26.0299 16.2505 26.1478 16.339C26.2919 16.1995 26.4272 16.0685 26.5625 15.9375Z" fill="#D8262C"/>
<path d="M24.431 7.98725C24.4649 8.02987 24.4808 8.06023 24.4737 8.10763C23.6963 7.95771 22.9419 7.79076 22.1914 7.6027C22.2582 7.42067 22.184 7.35127 22.0373 7.28681C21.8696 7.21315 21.7202 7.09802 21.5628 7.0009C22.0544 6.90391 22.546 6.80692 23.0538 6.69287C23.24 6.80559 23.4268 6.91859 23.5764 7.0687C23.8664 7.35976 24.1354 7.67169 24.431 7.98725Z" fill="#93C23D"/>
<path d="M16.0644 6.69052C16.0639 6.67951 16.0635 6.66849 16.0623 6.64095C16.0619 6.41454 16.0622 6.20465 16.0624 5.96613C16.0625 5.89071 16.0627 5.8439 16.063 5.77371C16.2572 5.87223 16.4514 5.99415 16.6667 6.1207C16.7487 6.22168 16.8128 6.40291 16.8703 6.40082C17.2992 6.38523 17.5367 6.71544 17.8633 6.94074C17.8749 7.00736 17.8749 7.03548 17.852 7.06195C17.5953 6.94538 17.3615 6.83046 17.0823 6.69321C17.0753 6.84817 17.0703 6.95658 17.065 7.08978C17.0642 7.18073 17.0637 7.24689 17.0413 7.3089C16.8997 7.24451 16.7727 7.19535 16.662 7.12163C16.4577 6.98553 16.2631 6.83502 16.0644 6.69052Z" fill="#9ED156"/>
<path d="M17.8748 7.0636C17.8749 7.03548 17.8749 7.00735 17.875 6.95813C18.4485 7.03424 18.9784 6.83378 19.5588 6.70306C19.7117 6.84839 19.8235 6.98729 19.945 7.1446C20.032 7.27543 20.1093 7.38786 20.195 7.51853C20.2221 7.58662 20.2408 7.63646 20.2335 7.68812C19.7842 7.70997 19.3609 7.72999 18.9164 7.74535C18.5551 7.51499 18.215 7.2893 17.8748 7.0636Z" fill="#9CCE4C"/>
<path d="M19.9353 7.1262C19.8235 6.9873 19.7117 6.8484 19.5824 6.69854C19.5644 6.67714 19.5638 6.66672 19.5626 6.64064C19.7396 6.63931 19.9212 6.63502 20.0942 6.67155C20.5685 6.77168 21.0391 6.88897 21.537 7.00018C21.7202 7.09801 21.8696 7.21314 22.0373 7.2868C22.184 7.35126 22.2582 7.42067 22.167 7.6014C21.5323 7.45173 20.9273 7.27634 20.3179 7.11785C20.1992 7.08696 20.0633 7.12172 19.9353 7.1262Z" fill="#8DC351"/>
<path d="M18.0046 14.2085C18.3359 14.2293 18.6717 14.2709 19.0496 14.3274C19.1677 14.397 19.2667 14.4364 19.3153 14.5094C19.4422 14.7001 19.6692 14.9266 19.6391 15.1014C19.5162 15.8153 19.3311 16.5209 19.1249 17.2165C19.0699 17.4021 18.8843 17.58 18.7137 17.6944C18.2996 17.9721 17.8595 18.211 17.4292 18.4645C16.5427 18.9867 15.6905 19.5755 14.6698 19.8302C13.9734 20.004 13.2833 20.2029 12.5879 20.3809C12.2279 20.4731 11.8626 20.5444 11.4997 20.6251C10.6605 20.798 9.82763 21.0208 8.95656 20.941C8.89769 20.9356 8.82251 20.9437 8.77749 20.9765C8.21554 21.3859 7.55153 21.3368 6.89374 21.3875C6.98014 21.3329 7.08245 21.2807 7.19088 21.2507C8.57873 20.8657 9.96719 20.4828 11.3561 20.1018C11.7466 19.9946 12.1364 19.8827 12.5313 19.7945C13.8453 19.501 14.8636 18.6332 16.0066 18.0098C16.7356 17.6123 17.4455 17.1774 18.1448 16.7293C18.3291 16.6112 18.4867 16.4018 18.5769 16.1989C18.6931 15.9373 18.7573 15.643 18.7877 15.3568C18.8026 15.217 18.7203 15.0407 18.629 14.9215C18.4412 14.6764 18.2178 14.4585 18.0046 14.2085Z" fill="#EE544E"/>
<path d="M9.0625 22.8749C8.9302 22.477 9.04021 22.3776 9.44056 22.3989C10.436 22.4519 11.44 22.5454 12.4282 22.467C13.1177 22.4123 13.7867 22.1001 14.508 21.8885C15.2043 21.7058 15.861 21.5493 16.5103 21.3667C17.5906 21.0629 18.6704 20.7555 19.7417 20.4219C20.1329 20.3001 20.5071 20.0674 20.6469 19.6668C20.8131 19.1906 20.8865 18.682 21.0207 18.1805C21.1515 17.933 21.2915 17.7014 21.3661 17.4503C21.5517 16.8258 21.7074 16.1924 21.8891 15.5842C21.9146 16.0185 21.9222 16.4313 21.9387 16.8437C21.9542 17.2293 21.9793 17.6145 21.9955 18.0235C21.7597 18.8021 21.7274 19.638 21.1027 20.233C20.8277 20.495 20.5836 20.8066 20.2683 21.0047C19.9163 21.2258 19.5047 21.3577 19.1096 21.5028C18.6218 21.682 18.1293 21.8517 17.6301 21.9952C16.6107 22.2884 15.5882 22.5718 14.5615 22.8378C14.0915 22.9596 13.6103 23.0946 13.1306 23.1096C12.4593 23.1308 11.785 23.0385 11.1113 23.0099C10.9087 23.0013 10.704 23.0436 10.4793 23.0625C10.4306 23.0624 10.4027 23.0624 10.3693 23.0442C10.326 22.9967 10.2881 22.9672 10.2219 22.9378C9.81654 22.9168 9.43952 22.8959 9.0625 22.8749Z" fill="#E8413B"/>
<path d="M9.83353 21.8887C10.0438 21.8332 10.2804 21.8099 10.5052 21.7456C10.8361 21.6509 11.1586 21.5271 11.5168 21.3937C12.575 21.1019 13.6095 20.8602 14.6251 20.5556C16.2031 20.0823 17.8504 19.7928 19.2497 18.825C19.5438 18.6216 19.7672 18.3948 19.8537 18.0666C20.1508 16.9393 20.4165 15.8048 20.396 14.63C20.4834 14.7083 20.5451 14.7868 20.6175 14.8539C20.7414 14.9688 20.8719 15.0767 20.9998 15.2157C20.979 15.5585 20.9582 15.873 20.9232 16.2055C20.8568 16.4129 20.7833 16.5994 20.7561 16.7924C20.6418 17.6025 20.421 18.3806 20.032 19.0997C19.9369 19.2753 19.7509 19.4503 19.5666 19.521C18.5581 19.9082 17.5453 20.2881 16.5182 20.6221C15.2146 21.0461 13.8952 21.4219 12.5848 21.8253C12.4855 21.8558 12.4028 21.9404 12.3125 21.9999C11.487 22.1232 10.6703 22.0233 9.83353 21.8887Z" fill="#EB4A44"/>
<path d="M12.3389 21.9994C12.4029 21.9404 12.4855 21.8558 12.5848 21.8253C13.8953 21.4219 15.2146 21.0461 16.5182 20.6221C17.5453 20.2881 18.5581 19.9082 19.5666 19.521C19.7509 19.4503 19.9369 19.2753 20.032 19.0997C20.4211 18.3807 20.6418 17.6025 20.7561 16.7924C20.7833 16.5994 20.8569 16.4129 20.9373 16.2272C20.977 16.8831 20.9885 17.5352 21.0001 18.1874C20.8865 18.682 20.8131 19.1906 20.6469 19.6668C20.5071 20.0674 20.1329 20.3001 19.7417 20.4219C18.6704 20.7555 17.5906 21.0629 16.5103 21.3667C15.861 21.5493 15.2043 21.7058 14.5255 21.8745C14.4725 21.8611 14.444 21.8335 14.4178 21.8355C13.7335 21.8881 13.0494 21.9437 12.3389 21.9994Z" fill="#E9483F"/>
<path d="M10.3748 23.0623C10.4027 23.0623 10.4306 23.0624 10.4994 23.0761C11.4003 23.2062 12.258 23.3468 13.1212 23.4308C13.7422 23.4911 14.3729 23.5174 14.9948 23.4813C15.5057 23.4515 16.009 23.3016 16.5179 23.2186C16.6321 23.2 16.7556 23.2381 16.8565 23.2635C16.6801 23.3282 16.5199 23.3738 16.3643 23.4318C15.3287 23.818 14.2591 23.9922 13.1554 23.936C12.0989 23.8822 11.0432 23.8136 9.98692 23.7574C9.72104 23.7432 9.45396 23.7518 9.18743 23.7499C9.16766 23.5999 9.14789 23.4499 9.12619 23.2749C9.10395 23.1409 9.08363 23.032 9.06291 22.899C9.43953 22.8959 9.81655 22.9168 10.2274 22.9559C10.2991 23.0034 10.3369 23.0329 10.3748 23.0623Z" fill="#E43439"/>
<path d="M24.8748 16.1875C24.8953 16.2559 24.9333 16.3242 24.9337 16.3928C24.939 17.2189 24.9386 18.045 24.94 18.8711C24.9401 18.9335 24.928 19.0003 24.9456 19.0576C25.1871 19.8441 25.0563 20.6308 24.9849 21.4252C24.9068 22.294 24.6257 23.0936 24.182 23.8163C23.7233 24.5634 23.0717 25.1198 22.1743 25.332C21.7108 25.4415 21.2596 25.6034 20.8033 25.7433C20.0683 25.9686 19.3318 26.0383 18.5624 25.8994C17.2457 25.6617 15.9224 25.4571 14.5975 25.2697C14.0961 25.1988 13.5792 25.2421 13.075 25.1843C12.076 25.0699 11.0812 24.9197 10.0841 24.7884C9.90969 24.7654 9.73267 24.7623 9.52869 24.7501C9.45894 24.579 9.41737 24.4079 9.39697 24.2028C9.50924 24.1651 9.60523 24.1405 9.69071 24.1606C11.3353 24.5474 13.0135 24.6855 14.6914 24.7286C15.604 24.752 16.4792 24.9842 17.3787 25.0244C18.1868 25.0606 19.0056 25.1025 19.8057 25.0146C20.8176 24.9034 21.7075 24.3861 22.61 23.9415C22.6558 23.919 22.7098 23.89 22.733 23.8488C23.0117 23.3542 23.351 22.881 23.5447 22.3544C23.8286 21.5827 24.021 20.7813 24.0583 19.9419C24.1012 18.9802 24.2243 18.0221 24.3275 17.0471C24.5199 16.7503 24.6973 16.4689 24.8748 16.1875Z" fill="#DF2E30"/>
<path d="M24.3125 17.0625C24.2243 18.0221 24.1012 18.9803 24.0583 19.942C24.0209 20.7813 23.8285 21.5827 23.5447 22.3544C23.351 22.881 23.0117 23.3543 22.733 23.8488C22.7098 23.89 22.6558 23.919 22.61 23.9415C21.7075 24.3861 20.8176 24.9035 19.8057 25.0146C19.0056 25.1025 18.1868 25.0606 17.3787 25.0244C16.4792 24.9842 15.604 24.752 14.6914 24.7286C13.0135 24.6855 11.3352 24.5475 9.69071 24.1607C9.60523 24.1406 9.50924 24.1651 9.39651 24.1782C9.35428 24.119 9.33368 24.0505 9.33567 23.9556C9.41981 23.9215 9.48245 23.9021 9.54274 23.9078C10.3175 23.9802 11.0917 24.0585 11.8665 24.1302C12.2794 24.1684 12.6928 24.2088 13.1069 24.2268C13.8413 24.2586 14.5921 24.3793 15.3078 24.273C16.54 24.0899 17.7686 24.049 19.0063 24.0609C19.3075 24.0638 19.6089 24.0469 19.9102 24.0375C20.3258 24.0246 20.6307 23.7561 20.9843 23.5917C21.7652 23.2285 22.3716 22.7295 22.6345 21.8803C22.8153 21.2965 23.0099 20.7168 23.1828 20.1307C23.3402 19.5968 23.5516 19.0642 23.606 18.5177C23.7058 17.5171 23.7073 16.5066 23.7499 15.4845C23.75 15.4584 23.75 15.448 23.771 15.4467C23.82 15.5191 23.8547 15.5802 23.8751 15.6457C24.0225 16.1174 24.1671 16.5901 24.3125 17.0625Z" fill="#E23131"/>
<path d="M23.7498 15.5002C23.7073 16.5066 23.7058 17.517 23.606 18.5177C23.5516 19.0641 23.3402 19.5968 23.1828 20.1306C23.01 20.7168 22.8153 21.2964 22.6345 21.8803C22.3716 22.7295 21.7652 23.2285 20.9843 23.5916C20.6307 23.7561 20.3258 24.0245 19.9102 24.0375C19.6089 24.0469 19.3075 24.0637 19.0063 24.0608C17.7687 24.0489 16.54 24.0898 15.3078 24.2729C14.5921 24.3793 13.8413 24.2586 13.1069 24.2267C12.6928 24.2088 12.2794 24.1684 11.8665 24.1302C11.0917 24.0585 10.3175 23.9801 9.54275 23.9077C9.48245 23.9021 9.41982 23.9215 9.33543 23.9334C9.30211 23.9375 9.29163 23.9375 9.26545 23.9376C9.23439 23.8872 9.21904 23.8367 9.19556 23.7681C9.45396 23.7518 9.72104 23.7432 9.98692 23.7573C11.0432 23.8135 12.0989 23.8822 13.1554 23.936C14.2591 23.9922 15.3287 23.8179 16.3643 23.4318C16.5199 23.3738 16.6801 23.3282 16.8774 23.2634C16.9446 23.2499 16.9725 23.2499 17.0178 23.2462C17.065 23.2243 17.0948 23.2059 17.1478 23.183C17.2799 23.1434 17.3872 23.1021 17.498 23.0742C18.1003 22.9227 18.6961 22.7229 19.3078 22.637C20.2618 22.503 21.0333 22.139 21.4992 21.256C21.5568 21.1469 21.6324 21.0462 21.7082 20.9482C22.3516 20.1161 22.8027 19.2138 22.7713 18.12C22.8903 17.9749 23.0311 17.8479 23.0785 17.6924C23.274 17.0513 23.439 16.4009 23.6214 15.7556C23.6468 15.6656 23.7062 15.5851 23.7498 15.5002Z" fill="#E43433"/>
<path d="M20.375 14.6251C20.4165 15.8048 20.1508 16.9393 19.8537 18.0666C19.7672 18.3949 19.5438 18.6216 19.2497 18.825C17.8504 19.7928 16.2031 20.0823 14.6251 20.5556C13.6095 20.8602 12.5751 21.1019 11.5245 21.3734C10.728 21.5633 9.95439 21.5127 9.18048 21.3897C8.98115 21.358 8.8579 21.3931 8.79366 21.6296C8.7558 21.769 8.59645 21.9513 8.46471 21.9773C7.31405 22.2044 6.15732 22.4007 5.00208 22.6044C4.97386 22.6094 4.94198 22.5936 4.89343 22.5749C5.16292 22.4814 5.44938 22.395 5.73889 22.3204C6.6436 22.0875 7.55036 21.8625 8.45364 21.6242C8.55514 21.5975 8.69112 21.5247 8.72234 21.4404C8.82717 21.1573 9.02207 21.181 9.26959 21.1706C9.70026 21.1525 10.1327 21.0784 10.5547 20.9843C10.8723 20.9135 11.1747 20.7748 11.4917 20.6457C11.8626 20.5444 12.2279 20.4731 12.5879 20.3809C13.2833 20.2029 13.9734 20.004 14.6698 19.8302C15.6905 19.5755 16.5427 18.9867 17.4292 18.4645C17.8595 18.211 18.2996 17.9721 18.7137 17.6944C18.8843 17.58 19.0699 17.4021 19.1249 17.2165C19.3311 16.5209 19.5162 15.8153 19.6391 15.1014C19.6692 14.9266 19.4422 14.7001 19.3153 14.5094C19.2667 14.4364 19.1677 14.397 19.0771 14.3275C19.003 14.1809 18.9436 14.0491 18.8795 13.8962C19.1283 13.8958 19.3817 13.9166 19.6774 13.9509C19.9381 14.1846 20.1566 14.4049 20.375 14.6251Z" fill="#EC4F49"/>
<path d="M20.396 14.63C20.1566 14.4049 19.9381 14.1846 19.7036 13.9509C19.5353 13.7597 19.4129 13.5374 19.2256 13.4121C18.608 12.9992 17.9539 12.6404 17.3399 12.2224C16.9962 11.9884 16.7041 11.6785 16.3874 11.3649C16.4421 11.2542 16.4981 11.1815 16.5627 11.1309C16.6586 11.2024 16.7403 11.2696 16.8339 11.2983C17.2301 11.4199 17.6448 11.4939 18.025 11.6519C18.8264 11.985 19.6715 12.2582 20.2431 12.9811C20.2733 13.0192 20.3303 13.036 20.3763 13.086C20.5554 13.5136 20.7249 13.9219 20.9137 14.3209C21.0476 14.604 21.1091 14.8848 20.9997 15.1875C20.8719 15.0767 20.7414 14.9689 20.6175 14.8539C20.5451 14.7868 20.4834 14.7083 20.396 14.63Z" fill="#EA4848"/>
<path d="M15.2571 10.2092C15.2099 9.99626 15.1734 9.80398 15.1334 9.56063C15.1158 9.33914 15.1018 9.16871 15.113 8.99843C15.4454 8.95679 15.7525 8.915 16.0605 8.89972C16.0634 9.01475 16.0655 9.10325 16.0671 9.22078C16.0629 9.99545 16.0592 10.7411 16.0555 11.4867C15.9052 11.3696 15.7548 11.2524 15.5884 11.1214C15.4709 10.815 15.3694 10.5225 15.2571 10.2092Z" fill="#93C23D"/>
<path d="M16.0775 11.4897C16.0592 10.7411 16.0629 9.99544 16.0875 9.22458C16.3809 9.40441 16.6535 9.60946 16.9274 9.83912C16.9014 10.0105 16.8741 10.1572 16.8369 10.3186C16.8232 10.368 16.8195 10.4028 16.8044 10.4571C16.7134 10.6874 16.6337 10.8981 16.554 11.1089C16.4981 11.1815 16.4421 11.2542 16.378 11.345C16.2797 11.4063 16.1896 11.4495 16.0775 11.4897Z" fill="#69AD4D"/>
<path d="M15.0879 8.99826C15.1018 9.1687 15.1158 9.33913 15.1279 9.53605C14.3309 9.6779 13.5363 9.79777 12.7403 9.90651C12.4057 9.95221 12.0679 9.97438 11.7189 9.98456C11.8578 9.83202 12.0095 9.70217 12.1808 9.56693C13.0535 8.9727 13.9908 8.59364 15.0272 8.45294C15.0555 8.64923 15.0717 8.82374 15.0879 8.99826Z" fill="#D8313B"/>
<path d="M15.0151 8.43117C13.9908 8.59363 13.0535 8.97269 12.1537 9.56591C11.657 9.75071 11.2062 9.92898 10.7589 10.1156C10.7232 10.1305 10.7116 10.203 10.6888 10.2487C10.6888 10.2487 10.6656 10.2451 10.654 10.2438C10.6446 10.1114 10.647 9.98022 10.6889 9.8291C11.3591 9.55079 11.9896 9.29224 12.6202 9.03421C13.414 8.70947 14.2078 8.38516 15.0117 8.07803C15.0195 8.20732 15.0173 8.31925 15.0151 8.43117Z" fill="#69AD4D"/>
<path d="M10.6977 10.2696C10.7116 10.203 10.7232 10.1305 10.7589 10.1156C11.2062 9.929 11.657 9.75072 12.134 9.57132C12.0095 9.70218 11.8578 9.83203 11.6959 9.98022C11.5852 10.088 11.4828 10.1755 11.3845 10.2674C11.1366 10.4989 10.9817 10.5051 10.6977 10.2696Z" fill="#479C4B"/>
<path d="M16.0642 6.71924C16.263 6.83502 16.4577 6.98552 16.662 7.12162C16.7726 7.19534 16.8997 7.2445 17.0488 7.32441C17.0939 7.37487 17.1095 7.40567 17.1248 7.46275C17.1252 7.57646 17.1261 7.66389 17.1257 7.77785C17.108 8.02021 17.0915 8.23605 17.0744 8.47876C17.0635 8.64936 17.0532 8.79309 17.0211 8.93513C16.8897 8.88188 16.7742 8.83994 16.6719 8.77673C16.4653 8.64902 16.2657 8.50976 16.0629 8.3463C16.0621 8.06554 16.0618 7.81375 16.0615 7.56196C16.0623 7.29063 16.0632 7.01929 16.0642 6.71924Z" fill="#8DC351"/>
<path d="M16.0352 7.56226C16.0618 7.81376 16.0621 8.06555 16.0627 8.37399C16.0618 8.57816 16.0607 8.72568 16.0597 8.8732C15.7525 8.91499 15.4454 8.95679 15.113 8.99842C15.0717 8.82375 15.0555 8.64923 15.0272 8.45294C15.0173 8.31925 15.0195 8.20733 15.012 8.05479C15.0018 7.96754 15.0013 7.92092 15.0081 7.85854C15.031 7.81191 15.0466 7.78102 15.0622 7.75013C15.3778 7.6876 15.6933 7.62507 16.0352 7.56226Z" fill="#9CCE4C"/>
<path d="M8.56366 9.37842C8.64131 9.32795 8.71897 9.27748 8.80684 9.2096C9.67467 8.88104 10.5323 8.56988 11.4139 8.25656C11.3695 8.38252 11.3011 8.51064 11.2117 8.67387C11.1459 8.80288 11.1011 8.89677 11.0415 9.00207C10.9986 9.05321 10.9703 9.09295 10.9231 9.11829C10.8343 9.09983 10.7618 9.08216 10.6945 9.0939C10.2256 9.1757 9.75949 9.27449 9.28906 9.34499C9.05094 9.38068 8.80569 9.36879 8.56366 9.37842Z" fill="#D3232C"/>
<path d="M10.9419 9.13269C10.9703 9.09295 10.9986 9.05321 11.0586 9.01574C11.1796 9.01026 11.2769 9.02293 11.357 8.99158C12.1286 8.68957 12.8955 8.37534 13.6677 8.07463C14.1286 7.89515 14.5964 7.73355 15.0612 7.5639C15.0615 7.61046 15.0618 7.65701 15.0621 7.72684C15.0466 7.78101 15.031 7.8119 14.9832 7.85915C14.3807 8.09322 13.8084 8.30623 13.2404 8.52977C12.4291 8.84903 11.6208 9.176 10.8136 9.47791C10.858 9.34832 10.9 9.2405 10.9419 9.13269Z" fill="#8DC351"/>
<path d="M15.06 7.54093C14.5964 7.73355 14.1286 7.89515 13.6677 8.07464C12.8955 8.37534 12.1286 8.68957 11.357 8.99159C11.2769 9.02294 11.1795 9.01026 11.0732 9.00434C11.1011 8.89677 11.1459 8.80288 11.2032 8.69451C11.7649 8.49669 12.3197 8.3276 12.8624 8.12626C13.495 7.89161 14.1178 7.63068 14.7432 7.37685C14.9055 7.31097 15.0292 7.30149 15.06 7.54093Z" fill="#9CCE4C"/>
<path d="M10.9231 9.1183C10.9 9.24051 10.858 9.34833 10.8002 9.49121C10.7525 9.58006 10.7207 9.63384 10.6889 9.68762C9.8511 9.82399 9.01388 9.96432 8.17512 10.0947C7.86168 10.1434 7.54463 10.1689 7.20717 10.1955C7.32933 10.0767 7.47355 9.96731 7.62511 9.83795C7.92841 9.67377 8.22437 9.52955 8.54199 9.38188C8.80568 9.3688 9.05093 9.38068 9.28906 9.34499C9.75948 9.27449 10.2256 9.1757 10.6945 9.0939C10.7618 9.08216 10.8343 9.09983 10.9231 9.1183Z" fill="#D92932"/>
<path d="M10.6887 9.70829C10.7207 9.63384 10.7525 9.58006 10.7978 9.51298C11.6208 9.17601 12.4291 8.84904 13.2404 8.52978C13.8084 8.30624 14.3807 8.09323 14.976 7.87491C15.0013 7.92092 15.0018 7.96754 15.0019 8.03742C14.2078 8.38517 13.4139 8.70948 12.6202 9.03422C11.9896 9.29225 11.3591 9.55081 10.7045 9.81017C10.6831 9.78379 10.6858 9.75637 10.6887 9.70829Z" fill="#7DB84C"/>
<path d="M24.3275 17.0471C24.1671 16.5901 24.0226 16.1174 23.8752 15.6457C23.8547 15.5801 23.82 15.519 23.771 15.42C23.6921 14.9127 23.7295 14.4028 23.5575 13.9776C23.1283 12.9167 22.5539 11.9245 21.8011 11.049C21.6198 10.8381 21.4309 10.6336 21.2573 10.4096C21.3268 10.3253 21.3845 10.2575 21.4615 10.1746C21.4678 10.0298 21.4791 9.89161 21.4371 9.77217C21.3517 9.52924 21.2376 9.29642 21.158 9.06165C21.4104 9.17706 21.6857 9.24295 21.8611 9.41233C22.3867 9.91987 22.8733 10.4679 23.3751 11.0001C23.6092 11.4267 23.8365 11.8572 24.0787 12.2792C24.6808 13.328 24.9418 14.4548 24.8761 15.6605C24.8676 15.8162 24.8749 15.9727 24.8748 16.1582C24.6973 16.4689 24.5199 16.7503 24.3275 17.0471Z" fill="#DD2F35"/>
<path d="M23.3962 11.0047C22.8733 10.4679 22.3867 9.91988 21.8611 9.41233C21.6857 9.24296 21.4104 9.17707 21.152 9.06375C21.1233 9.06362 21.1113 9.06796 21.1063 9.04689C20.9839 8.78744 20.8665 8.54905 20.7734 8.30188C21.5107 8.55263 22.2238 8.81216 22.9469 9.08198C22.9713 9.1052 22.9872 9.11585 23.0028 9.12433C23.001 9.12441 23.0026 9.12116 23.0079 9.1414C23.0458 9.20093 23.0737 9.24547 23.1116 9.27872C24.179 10.2157 25.034 11.3111 25.5915 12.6244C25.8017 13.1197 25.9894 13.6246 26.1874 14.1251C26.3113 14.7122 26.4351 15.2994 26.5607 15.912C26.4272 16.0684 26.2919 16.1994 26.1478 16.339C26.0299 16.2505 25.9108 16.161 25.7709 16.067C25.6315 15.7137 25.5188 15.3627 25.3933 15.0164C25.1448 14.3308 24.9221 13.633 24.6265 12.968C24.3841 12.423 24.0582 11.9142 23.7544 11.398C23.6689 11.2526 23.5311 11.138 23.3962 11.0047Z" fill="#DA262F"/>
<path d="M26.207 14.1151C25.9894 13.6246 25.8017 13.1197 25.5915 12.6244C25.034 11.3111 24.179 10.2157 23.1116 9.27871C23.0737 9.24547 23.0457 9.20092 23.0308 9.14383C23.7748 9.53999 24.5049 9.9478 25.2252 10.3721C25.4139 10.4832 25.573 10.5582 25.7482 10.3726C25.802 10.5401 25.8382 10.7159 25.9127 10.8736C26.2615 11.6112 26.3103 12.4149 26.4333 13.2013C26.4646 13.4011 26.4605 13.6138 26.4278 13.8131C26.4105 13.9186 26.2967 14.0083 26.207 14.1151Z" fill="#E43439"/>
<path d="M20.2596 7.68632C20.2409 7.63648 20.2221 7.58664 20.2123 7.50623C20.4365 7.53484 20.6517 7.59395 20.8668 7.65324C22.1143 7.99712 23.3612 8.34308 24.6104 8.68057C24.6977 8.70414 24.8019 8.66504 24.8982 8.65508C25.0781 8.94277 25.258 9.23047 25.4162 9.54028C25.037 9.45977 24.6717 9.37867 24.3237 9.2505C23.2614 8.85928 22.2082 8.44354 21.1456 8.05327C20.9427 7.97875 20.7131 7.97688 20.4796 7.93038C20.3954 7.84161 20.3275 7.76397 20.2596 7.68632Z" fill="#69AD4D"/>
<path d="M20.4958 7.94147C20.7131 7.97685 20.9427 7.97872 21.1456 8.05324C22.2082 8.44351 23.2614 8.85925 24.3237 9.25047C24.6717 9.37864 25.037 9.45974 25.4207 9.56222C25.549 9.8154 25.651 10.0687 25.7506 10.3473C25.573 10.5582 25.4139 10.4832 25.2252 10.3721C24.5049 9.94779 23.7748 9.53999 23.0255 9.12358C23.0026 9.12115 23.001 9.1244 22.9963 9.11005C22.9733 9.08769 22.9551 9.07968 22.9368 9.07168C22.2238 8.81215 21.5107 8.55262 20.7737 8.30382C20.7498 8.31455 20.7537 8.31371 20.7548 8.29622C20.7347 8.27019 20.7135 8.26164 20.6753 8.24079C20.6041 8.1328 20.55 8.03714 20.4958 7.94147Z" fill="#479C4B"/>
<path d="M24.8897 8.63643C24.8019 8.66503 24.6977 8.70414 24.6104 8.68057C23.3612 8.34308 22.1143 7.99712 20.8668 7.65324C20.6517 7.59394 20.4365 7.53483 20.204 7.48797C20.1093 7.38788 20.032 7.27545 19.945 7.14462C20.0633 7.12173 20.1992 7.08697 20.3179 7.11786C20.9273 7.27636 21.5323 7.45174 22.1632 7.62252C22.9419 7.79076 23.6963 7.95772 24.4786 8.12423C24.6315 8.28845 24.7564 8.45312 24.8897 8.63643Z" fill="#7DB84C"/>
<path d="M21.1293 9.06153C21.2376 9.29642 21.3517 9.52925 21.4371 9.77218C21.4791 9.89162 21.4678 10.0298 21.4498 10.1565C21.3201 10.0808 21.226 10.0003 21.1217 9.93634C20.6196 9.62825 20.1106 9.33114 19.6117 9.01794C18.7798 8.49567 17.9537 7.96412 17.1252 7.43648C17.1095 7.40568 17.0939 7.37488 17.0707 7.32856C17.0637 7.24689 17.0642 7.18074 17.0865 7.09357C17.5917 7.37342 18.0681 7.68676 18.5611 7.97124C18.96 8.20137 19.3084 8.5472 19.8306 8.57097C20.2708 8.7432 20.6911 8.90558 21.1113 9.06797C21.1113 9.06797 21.1233 9.06362 21.1293 9.06153Z" fill="#7DB84C"/>
<path d="M19.8106 8.56112C19.3084 8.54719 18.96 8.20137 18.5611 7.97124C18.0681 7.68675 17.5918 7.37341 17.0868 7.06876C17.0703 6.95658 17.0753 6.84817 17.0823 6.69321C17.3615 6.83045 17.5953 6.94538 17.852 7.06195C18.215 7.2893 18.5552 7.515 18.9229 7.76544C19.0887 7.88985 19.2373 7.978 19.3623 8.09205C19.5217 8.23746 19.662 8.4038 19.8106 8.56112Z" fill="#8DC351"/>
<path d="M19.8306 8.57098C19.662 8.40382 19.5217 8.23748 19.3623 8.09206C19.2373 7.97802 19.0887 7.88987 18.944 7.77012C19.3609 7.73001 19.7842 7.70999 20.2335 7.68814C20.3275 7.76396 20.3954 7.84161 20.4796 7.93037C20.55 8.03716 20.6041 8.13282 20.6784 8.25714C20.717 8.2951 20.7353 8.30441 20.7537 8.31373C20.7537 8.31373 20.7498 8.31457 20.7495 8.31262C20.8665 8.54906 20.9839 8.78745 21.1063 9.04691C20.6911 8.90559 20.2708 8.74321 19.8306 8.57098Z" fill="#93C23D"/>
<path d="M17.0004 23.2498C16.9724 23.2499 16.9445 23.2499 16.8957 23.25C16.7556 23.2381 16.6321 23.2 16.5179 23.2186C16.009 23.3016 15.5057 23.4515 14.9948 23.4813C14.3729 23.5174 13.7422 23.4911 13.1212 23.4308C12.258 23.3468 11.4003 23.2062 10.5203 23.0761C10.704 23.0436 10.9087 23.0013 11.1113 23.0099C11.785 23.0384 12.4593 23.1308 13.1306 23.1096C13.6103 23.0946 14.0915 22.9596 14.5615 22.8378C15.5882 22.5718 16.6107 22.2884 17.6301 21.9952C18.1293 21.8517 18.6218 21.6819 19.1096 21.5028C19.5047 21.3577 19.9163 21.2258 20.2683 21.0047C20.5836 20.8066 20.8277 20.495 21.1027 20.233C21.7274 19.638 21.7597 18.8021 22.0104 18.0083C22.1391 17.7573 22.2421 17.5415 22.3594 17.3339C22.4373 17.1958 22.5357 17.0692 22.6389 16.9589C22.6852 17.3619 22.7176 17.7435 22.7501 18.1251C22.8027 19.2138 22.3516 20.1161 21.7082 20.9483C21.6324 21.0462 21.5568 21.147 21.4992 21.256C21.0333 22.139 20.2618 22.5031 19.3078 22.637C18.6961 22.7229 18.1003 22.9227 17.498 23.0743C17.3872 23.1021 17.2799 23.1434 17.1354 23.1741C17.0667 23.1964 17.0335 23.2231 17.0004 23.2498Z" fill="#E63B36"/>
<path d="M22.625 16.9374C22.5357 17.0692 22.4373 17.1958 22.3594 17.3339C22.2421 17.5415 22.1391 17.7573 22.0151 17.9847C21.9793 17.6145 21.9542 17.2293 21.9387 16.8437C21.9222 16.4313 21.9146 16.0185 21.8891 15.555C21.872 14.9893 21.9433 14.4623 21.6206 13.9778C21.4866 13.6843 21.3796 13.3992 21.2229 13.1447C20.7804 12.4258 20.4092 11.6425 19.5767 11.2584C18.695 10.8517 17.7859 10.5438 16.8158 10.4376C16.8195 10.4028 16.8232 10.368 16.8678 10.3204C17.5137 10.3852 18.1188 10.4626 18.7238 10.5406C19.4844 10.6386 20.133 10.94 20.7096 11.4684C21.2779 11.9892 21.6987 12.6071 22.1211 13.2347C22.5473 13.868 22.7668 14.5465 22.6933 15.3214C22.6424 15.8574 22.6458 16.3986 22.625 16.9374Z" fill="#E3383B"/>
<path d="M21.6249 14C21.9433 14.4623 21.872 14.9893 21.8751 15.5333C21.7074 16.1923 21.5517 16.8257 21.3661 17.4503C21.2915 17.7014 21.1515 17.933 21.0206 18.1805C20.9885 17.5352 20.977 16.8831 20.9514 16.2092C20.9582 15.873 20.979 15.5585 20.9998 15.2157C21.1091 14.8848 21.0476 14.604 20.9137 14.3209C20.7249 13.9218 20.5554 13.5136 20.3974 13.0906C20.7419 13.3344 21.0653 13.5986 21.3924 13.8581C21.463 13.9141 21.5471 13.9531 21.6249 14Z" fill="#E84343"/>
<path d="M10.3693 23.0442C10.3369 23.0329 10.2991 23.0034 10.2557 22.9559C10.2881 22.9672 10.326 22.9967 10.3693 23.0442Z" fill="#E63B36"/>
<path d="M22.6389 16.9589C22.6458 16.3986 22.6424 15.8574 22.6933 15.3214C22.7668 14.5465 22.5473 13.868 22.1211 13.2347C21.6987 12.6071 21.2779 11.9892 20.7096 11.4684C20.133 10.94 19.4844 10.6386 18.7237 10.5406C18.1188 10.4626 17.5137 10.3852 16.8777 10.3058C16.8741 10.1572 16.9014 10.0105 16.9342 9.81819C16.9605 9.70256 16.9812 9.63248 17.031 9.56242C18.1137 9.52439 19.1521 9.59098 20.1453 9.99209C20.212 10.0191 20.2999 9.99377 20.3994 9.99701C20.5149 10.0771 20.6206 10.1424 20.7007 10.231C20.8508 10.3969 21.022 10.4777 21.2455 10.4261C21.4309 10.6336 21.6198 10.8381 21.8011 11.049C22.5539 11.9246 23.1283 12.9167 23.5575 13.9776C23.7295 14.4028 23.6921 14.9127 23.75 15.4108C23.75 15.448 23.75 15.4584 23.7499 15.4845C23.7062 15.5851 23.6468 15.6656 23.6214 15.7556C23.439 16.4009 23.274 17.0513 23.0785 17.6925C23.0311 17.8479 22.8903 17.9749 22.7712 18.1201C22.7176 17.7435 22.6852 17.3619 22.6389 16.9589Z" fill="#E43439"/>
<path d="M17.0178 23.2463C17.0335 23.2231 17.0667 23.1964 17.1123 23.1786C17.0948 23.2059 17.065 23.2243 17.0178 23.2463Z" fill="#E43439"/>
<path d="M21.6206 13.9778C21.5471 13.9531 21.463 13.9141 21.3924 13.8581C21.0653 13.5986 20.7419 13.3344 20.396 13.0673C20.3303 13.036 20.2732 13.0192 20.2431 12.9811C19.6715 12.2582 18.8264 11.985 18.025 11.6519C17.6448 11.4939 17.2301 11.4199 16.8339 11.2983C16.7403 11.2696 16.6586 11.2024 16.5627 11.1309C16.6337 10.8982 16.7134 10.6874 16.8044 10.4572C17.7859 10.5438 18.695 10.8517 19.5767 11.2584C20.4092 11.6425 20.7804 12.4258 21.2229 13.1447C21.3796 13.3992 21.4866 13.6843 21.6206 13.9778Z" fill="#E73E44"/>
<path d="M17.0019 9.5624C16.9812 9.63247 16.9605 9.70254 16.933 9.79356C16.6536 9.60946 16.3809 9.40441 16.0879 9.19555C16.0655 9.10324 16.0634 9.01473 16.0605 8.89971C16.0607 8.72567 16.0618 8.57815 16.063 8.40295C16.2657 8.50976 16.4653 8.64902 16.6719 8.77673C16.7742 8.83994 16.8897 8.88189 17.0244 8.96083C17.0337 9.1796 17.0178 9.371 17.0019 9.5624Z" fill="#7DB84C"/>
<path d="M17.031 9.5624C17.0178 9.371 17.0337 9.1796 17.0463 8.96251C17.0532 8.79309 17.0635 8.64937 17.0989 8.47647C17.6851 8.60472 18.2464 8.76214 18.8273 8.93091C19.3574 9.29243 19.8677 9.6426 20.378 9.99277C20.2999 9.99376 20.212 10.0191 20.1453 9.99208C19.1521 9.59097 18.1137 9.52438 17.031 9.5624Z" fill="#DD2F35"/>
<path d="M20.3994 9.99701C19.8677 9.64261 19.3574 9.29244 18.8256 8.91026C18.6933 8.7764 18.5944 8.6558 18.4695 8.57609C18.0268 8.29363 17.5751 8.02513 17.1269 7.75134C17.1261 7.66391 17.1252 7.57648 17.1248 7.46277C17.9537 7.96413 18.7798 8.49568 19.6117 9.01794C20.1106 9.33115 20.6196 9.62826 21.1217 9.93635C21.226 10.0003 21.3201 10.0808 21.4306 10.1717C21.3845 10.2575 21.3268 10.3253 21.2573 10.4096C21.022 10.4777 20.8508 10.3969 20.7007 10.231C20.6206 10.1424 20.5149 10.0771 20.3994 9.99701Z" fill="#69AD4D"/>
<path d="M17.1257 7.77786C17.5751 8.02513 18.0268 8.29362 18.4695 8.57609C18.5944 8.6558 18.6933 8.7764 18.8059 8.8989C18.2464 8.76215 17.6851 8.60472 17.0994 8.4496C17.0915 8.23606 17.108 8.02022 17.1257 7.77786Z" fill="#479C4B"/>
<path d="M22.9469 9.08198C22.9551 9.07969 22.9733 9.08769 22.9981 9.10997C22.9872 9.11586 22.9713 9.1052 22.9469 9.08198Z" fill="#E43439"/>
<path d="M20.7548 8.29625C20.7353 8.30442 20.717 8.29511 20.6954 8.26946C20.7135 8.26167 20.7347 8.27022 20.7548 8.29625Z" fill="#DA262F"/>
</g>
<defs>
<clipPath id="clip0_1_111">
<rect width="32" height="32" fill="white"/>
</clipPath>
</defs>
</svg>
