<svg width="32" height="32" viewBox="0 0 32 32" fill="none" xmlns="http://www.w3.org/2000/svg">
<path d="M30.0408 16.1807C30.0408 16.1807 30.4683 12.9181 29.6908 11.4431C28.9133 9.96815 26.5133 6.71065 21.5358 6.12315C18.8958 5.81315 17.1083 6.16315 15.4783 6.35565C14.4458 6.47815 12.5233 5.84315 9.0708 6.62815C6.5108 7.21065 2.6258 9.46315 1.3633 14.3182C0.698297 16.8757 0.950797 19.6382 2.0833 21.9657C4.2583 26.4307 8.2958 27.5182 8.2958 27.5182L16.4108 28.1782L26.2358 24.0232L30.0408 16.1807V16.1807Z" fill="#F44336"/>
<path d="M20.6058 28.6057C25.7708 27.5957 30.2358 22.9757 31.0133 18.0832C31.7408 13.5057 29.0658 10.4382 29.0658 10.4382C29.0658 10.4382 29.3708 12.8807 28.8008 15.4832C28.1883 18.2682 26.4158 22.9107 20.8008 25.5407C13.9083 28.7682 6.35828 26.6407 6.35828 26.6407C6.35828 26.6407 11.4883 30.3882 20.6058 28.6057V28.6057Z" fill="#DC0D27"/>
<path d="M6.32824 12.0257C4.95574 11.6707 3.24324 12.7082 2.99574 15.7457C2.76824 18.5282 4.27574 21.8807 5.75324 21.4807C7.00824 21.1407 5.80074 18.8157 6.24824 16.9082C6.70074 15.0007 8.42074 12.5682 6.32824 12.0257V12.0257Z" fill="#FED3B0"/>
<path d="M8.04063 8.5125C7.84563 8.765 8.29813 9.875 10.5956 9.86C12.8906 9.845 13.2756 9.1525 14.2981 9.4625C15.3206 9.7725 16.1181 11.0025 17.2481 11.675C18.8281 12.615 21.1081 12.375 21.0931 11.9575C21.0781 11.5375 20.5206 11.7525 20.0406 11.165C19.5606 10.575 18.7106 9.0175 18.7106 9.0175C18.7106 9.0175 18.9481 8.2875 19.4506 8.315C20.6106 8.3775 21.9006 8.1475 22.6106 7.7025C23.4606 7.1725 23.7806 6.355 23.6256 6.1675C23.4706 5.9825 22.9881 6.4825 22.7256 6.435C22.4631 6.3875 20.7556 6.42 20.7556 6.42L18.6931 6.085C18.6931 6.085 18.9756 4.8775 19.5331 4.2575C20.0906 3.6375 20.9656 2.785 20.9481 2.6775C20.9306 2.57 20.2281 2.665 20.2281 2.665L18.0556 3.6575L16.5356 5.6575L13.6506 6.03L10.8731 4.1675C10.8731 4.1675 9.28063 2.8825 9.20813 2.9125C8.80563 3.0775 9.41813 3.69 9.88063 4.43C10.2806 5.0725 10.3631 5.395 10.9031 5.8425C11.4306 6.2775 12.3156 6.71 12.3156 6.71L11.6806 7.8575C11.6806 7.8575 9.63313 8.665 9.27563 8.665C8.92063 8.6675 8.14813 8.375 8.04063 8.5125V8.5125Z" fill="#61B126"/>
<path d="M14.4507 7.82001C15.2882 7.88251 15.8932 8.99501 16.6482 9.75251C17.7507 10.855 18.6132 11.43 19.5407 11.6475C20.0057 11.755 21.0732 11.9325 21.0732 11.9325C21.0732 11.9325 21.2282 11.825 20.7007 11.53C20.1732 11.235 19.8557 10.67 19.7782 10.4075C19.7007 10.145 19.4582 9.28251 18.9482 8.56751C18.4382 7.85251 17.8582 7.55001 18.0432 7.22501C18.2282 6.90001 19.8282 7.45001 21.3682 7.20251C23.4007 6.87751 23.7107 6.22501 23.6182 6.14751C23.5257 6.07001 22.2682 6.44251 21.6332 6.30251C20.9982 6.16251 20.4532 5.72751 19.4932 5.72751C18.8382 5.72751 18.1982 5.96501 18.0257 5.60751C17.8807 5.30751 18.4257 4.30501 18.8407 3.92751C19.8482 3.01251 20.9357 2.79501 20.9357 2.67001C20.9357 2.41251 19.1682 2.26751 17.9432 3.24501C16.7232 4.21751 16.9532 5.49501 15.3682 5.49501C14.8407 5.49501 14.6382 5.37001 14.6382 5.37001C14.6382 5.37001 13.9307 4.78751 12.9857 4.27501C12.0407 3.76251 11.3282 3.99001 10.7832 3.72751C10.2407 3.46501 9.27818 2.78501 9.18568 2.92251C9.09318 3.06001 9.90818 3.99001 10.9332 4.75001C11.9582 5.51001 13.1057 5.89751 12.7782 6.20751C12.4532 6.51751 11.9107 6.72001 11.3982 7.10751C10.8857 7.49501 10.4357 8.05251 9.81568 8.25501C9.19568 8.45751 8.17568 8.31501 8.03568 8.48501C7.89568 8.65501 9.11568 9.24251 11.0232 8.88751C12.9257 8.53251 12.9307 7.70751 14.4507 7.82001V7.82001Z" fill="#4E901E"/>
<path d="M16.2653 0.00066506C15.848 -0.0145589 15.3208 0.236636 15.3208 0.236636C15.3208 0.236636 14.5562 0.946453 14.2538 2.70863C14.1139 3.52311 14.2663 4.61733 14.2363 5.22058C14.2063 5.82192 14.0339 6.04648 14.0814 6.35476C14.1289 6.66114 14.5512 7.00749 15.5282 6.99988C16.3128 6.99417 16.7175 6.53174 16.7026 6.36618C16.6876 6.20062 16.0154 4.51266 16.2053 3.02452C16.3827 1.64105 17.0449 0.685743 17.0724 0.485928C17.0874 0.377458 16.8999 0.023501 16.2653 0.00066506V0.00066506Z" fill="#346B0B"/>
</svg>
