<svg width="32" height="32" viewBox="0 0 32 32" fill="none" xmlns="http://www.w3.org/2000/svg">
<g clip-path="url(#clip0_1_2)">
<path d="M32 9.73913H29.9131V6.26088H27.8261V4.17394H25.7391V2.08694H18.7826V4.17394H16.6956V0H14.6087V4.17394H13.2174V2.08694H6.26088V4.17394H4.17394V6.26088H2.08694V9.73913H0V21.5652H2.08694V25.7391H4.17394V27.8261H6.26088V29.9131H10.4348V32H21.5652V29.9131H25.7391V27.8261H27.8261V25.7391H29.9131V21.5652H32V9.73913Z" fill="#AB2300"/>
<path d="M27.8261 6.26088V4.17394H25.7391V2.08694H18.7826V4.17394H18.0869H16.6956V0H14.6087V4.17394H13.9131H13.2174V2.08694H6.26088V4.17394H4.17394V6.26088H2.08694V9.73913H4.17394H8.34782V13.9131H13.9131V11.8261H18.0869V13.9131H23.6522V9.73913H27.8261H29.9131V6.26088H27.8261Z" fill="#4E901E"/>
<path d="M14.6087 6.26088V7.65219H16.6956V6.26088H18.7826V4.17394H16.6956V0H14.6087V4.17394H13.2174V6.26088H14.6087Z" fill="black"/>
<path d="M18.087 9.73913H13.9131V11.8261H18.087V9.73913Z" fill="black"/>
<path d="M23.6522 7.65218H21.5652V9.73912V11.8261H18.0869V13.9131H21.5652H23.6522V11.8261V9.73912H27.8261H29.9131V7.65218V6.26087H27.8261V7.65218H23.6522Z" fill="black"/>
<path d="M27.8261 4.17393H25.7391V6.26087H27.8261V4.17393Z" fill="black"/>
<path d="M25.7391 2.08694H18.7826V4.17387H25.7391V2.08694Z" fill="black"/>
<path d="M13.2174 2.08694H6.26086V4.17387H13.2174V2.08694Z" fill="black"/>
<path d="M6.26089 4.17393H4.17395V6.26087H6.26089V4.17393Z" fill="black"/>
<path d="M8.34782 9.73912V11.8261V13.9131H10.4348H13.9131V11.8261H10.4348V9.73912V7.65218H8.34782H4.17394V6.26087H2.08694V7.65218V9.73912H4.17394H8.34782Z" fill="black"/>
<path d="M4.17388 21.5652H2.08694V25.7391H4.17388V21.5652Z" fill="black"/>
<path d="M6.26089 25.7391H4.17395V27.8261H6.26089V25.7391Z" fill="black"/>
<path d="M10.4348 27.8261H6.26086V29.913H10.4348V27.8261Z" fill="black"/>
<path d="M21.5653 29.9131H10.4348V32H21.5653V29.9131Z" fill="black"/>
<path d="M25.7391 27.8261H21.5652V29.913H25.7391V27.8261Z" fill="black"/>
<path d="M27.8261 25.7391H25.7391V27.8261H27.8261V25.7391Z" fill="black"/>
<path d="M29.913 21.5652H27.826V25.7391H29.913V21.5652Z" fill="black"/>
<path d="M32 9.73913H29.9131V21.5652H32V9.73913Z" fill="black"/>
<path d="M2.08694 9.73913H0V21.5652H2.08694V9.73913Z" fill="black"/>
<path d="M6.26089 11.8261H4.17395V15.3043H6.26089V11.8261Z" fill="white"/>
<path d="M6.26089 17.3913H4.17395V19.4783H6.26089V17.3913Z" fill="white"/>
</g>
<defs>
<clipPath id="clip0_1_2">
<rect width="32" height="32" fill="white"/>
</clipPath>
</defs>
</svg>
